<svg version="1.1" xmlns="http://www.w3.org/2000/svg" viewBox="0 0 1149.4180647132143 593.424072265625" width="1149.4180647132143" height="593.424072265625">
  <!-- svg-source:excalidraw -->
  
  <defs>
    <style>
      @font-face {
        font-family: "Virgil";
        src: url("https://plus.excalidraw.com/Virgil.woff2");
      }
      @font-face {
        font-family: "Cascadia";
        src: url("https://plus.excalidraw.com/Cascadia.woff2");
      }
    </style>
  </defs>
  <g stroke-linecap="round" transform="translate(534.7554929195537 375.44805908203125) rotate(0 114.3699951171875 103.98800659179688)"><path d="M29.48 33.58 C29.48 33.58, 29.48 33.58, 29.48 33.58 M29.48 33.58 C29.48 33.58, 29.48 33.58, 29.48 33.58 M13.35 54.9 C21.18 48.32, 29.1 39.48, 41.82 28.18 M14.61 56.08 C22.49 48.43, 30.13 40.64, 40.55 26.93 M8.15 69.83 C26.83 49.22, 43.1 30.83, 54.34 18.78 M9.36 69.43 C20.55 56.91, 30.56 45.61, 52.07 19.48 M8.8 78.89 C21.63 59.77, 33.82 42.84, 62.6 11.75 M6.74 76.28 C23.1 60.15, 36.47 44.79, 63.57 11.12 M7.86 84.83 C28.11 61.06, 47.11 37.83, 67.41 12.88 M6.69 84.35 C20.52 69.05, 35.47 51.15, 67.49 12.91 M4.54 94.71 C19.54 72.69, 40.55 52.43, 76.34 11.08 M5.4 93.5 C23.87 71.79, 41.89 49.11, 76.63 11.37 M2.57 99.61 C34.48 65.67, 61.35 30.9, 83.97 7.82 M1.98 101.14 C20.17 82.03, 35.37 63.11, 84.31 8.59 M2.65 107.03 C25.78 80.74, 49.84 51.91, 93.46 1.67 M2.7 107.43 C36.44 70.22, 68.83 31.48, 94.56 2.51 M4.28 112.13 C32.4 82.04, 58.83 49.57, 99.91 4.34 M3.59 112.15 C29.21 82.31, 55.16 52.82, 99.38 1.67 M5.66 119.42 C41.46 71.47, 84.23 27.57, 104.48 3.96 M4.08 117.13 C30.12 88.01, 56.67 58.7, 103.58 2.22 M6.7 123.89 C40.1 84.05, 72.7 46.93, 109.17 2.41 M4.87 123.16 C36.35 88.51, 66.31 54.06, 109.4 1.96 M6.89 126.49 C34.09 97.96, 57.41 64.29, 116.52 3.2 M5.55 128.1 C31.79 99.55, 54.53 70.27, 114.9 1.92 M7.14 133.32 C49.12 85.7, 87.33 37.37, 120.14 2.68 M7.16 131.84 C38.14 96.6, 70.59 60.37, 120.37 2.34 M9.53 136.79 C45.32 92.23, 85.88 48.26, 127.79 3.18 M7.82 136.19 C32.92 109.32, 57.54 79.36, 126.1 1.48 M9.87 144.34 C53.04 90.52, 101.06 37.36, 131.92 4.27 M8.03 143.26 C36.6 113.62, 64.01 81.1, 130.8 1.62 M12.03 148.07 C44.93 104.62, 80.45 63.21, 136.76 3.89 M10.74 147.89 C54.26 98.8, 95.33 50.05, 137.38 1.89 M13.98 149.53 C40.98 120.34, 66.55 89.36, 139.56 3.07 M12.23 150.08 C49.5 105.41, 87.42 63.68, 140.01 3.76 M16.77 154.31 C45.22 117.09, 74.44 81.13, 145.58 6.57 M14.85 154.34 C61.99 99.27, 108.07 45.66, 143.9 5.33 M15.69 158.27 C59.2 112.46, 98.72 65.82, 146.71 6.64 M16.96 157.65 C67.29 99.63, 117.13 43.24, 147.72 7.85 M20.77 159.94 C57.59 120.82, 91.78 79.79, 153.75 6.77 M21.16 160.48 C49.34 125.6, 78.24 92.7, 152.69 7.15 M23.94 162.88 C57.82 125.33, 89.54 88.32, 155.68 8.43 M22.62 163.18 C75.43 103.87, 128.11 43.37, 157 9.2 M26.91 167.8 C67.17 118.51, 109.51 67.65, 160.98 12.53 M25.68 166.5 C66.22 116.68, 107.18 68.5, 159.91 11.45 M28.37 168.28 C55.77 137.51, 87.84 102.43, 162.69 12.06 M27.19 170.27 C75.64 116.28, 121.36 62.37, 164.98 12.92 M31.73 172.32 C65.44 129.98, 104.04 86.08, 166.85 13.76 M29.36 172.54 C59.43 141.03, 87.68 107.65, 167.98 14.21 M33.19 175.93 C73.58 128.55, 114.63 82.53, 172.77 16.82 M33.76 174.93 C70.74 133.81, 107.82 89.86, 172.68 16.25 M37.34 177.19 C77.8 128.65, 120.15 83.01, 176.52 16.77 M35.59 177.72 C81.17 124.7, 127.77 71.28, 177.09 16.96 M39.5 180.25 C94.43 116.3, 151.54 54.2, 178.87 20.35 M38.42 181.91 C82.25 129.75, 125.6 79.08, 179.6 19.64 M43.22 182.31 C87.71 133.33, 130.66 79.73, 182.89 23.19 M43.27 182.18 C79.87 140.69, 118.64 96.1, 182.5 22.73 M45.13 186.48 C92.08 132.09, 138.82 79.97, 185.69 23.14 M46.57 186.41 C81.45 146.38, 114.42 106.82, 185.32 24.99 M49.96 186.96 C92.4 136.41, 137.73 85.69, 188.33 28.6 M49.61 187.56 C89.49 140.07, 129.24 94.14, 188.35 26.59 M52.79 188.48 C96.67 138.9, 141.56 87.14, 192.18 31.47 M52.1 189.77 C97.94 136.68, 145.19 83.83, 192.36 30.73 M54.68 190.71 C88.96 155.17, 118.9 118.5, 193.46 31 M57.01 191.76 C84.68 159.6, 111.61 128.2, 193.81 32.17 M59.05 193.61 C101.35 146.55, 142.49 97.96, 197.8 34.13 M58.85 195.35 C98.23 150.53, 135.19 106.56, 197.44 33.97 M62.65 195.95 C98.86 155.57, 136.06 114.15, 201.6 36.65 M62.63 195.89 C102.97 151.27, 143.97 103.31, 201.9 37.21 M66.01 200.63 C99.14 163.36, 127.91 125.75, 202.89 40.85 M65.06 199.6 C103.67 155.97, 138.64 114.45, 205.05 39.93 M67.29 203.41 C121.07 141.18, 173.11 78.6, 207.3 43.71 M69.3 202.38 C97.94 167.6, 127.29 133.4, 207.16 42.69 M73.8 203.48 C121.28 147.44, 167.66 96.07, 209.63 45.8 M74.33 201.96 C118.12 150.79, 162.9 101.2, 209.9 45.71 M78.32 204.3 C106.23 169.2, 137.95 138.16, 209.94 49.49 M77.43 202.78 C114.04 160.98, 151.39 118.9, 210.17 50.47 M82.62 203.72 C123.96 152.06, 168.52 101.39, 213.85 53.23 M82.68 204.3 C133.43 147.53, 183.76 89.42, 212.37 54.6 M86.29 207.2 C130.66 154.2, 176.58 101.16, 214.46 59.84 M87.75 205.31 C132.6 154.46, 178.9 101.9, 215.65 57.31 M93.1 207 C134.91 155.23, 180.74 100.98, 214.88 60.53 M91.98 205.85 C142.39 149.59, 191.68 92.65, 216.19 63.09 M94.74 206.79 C121.92 175.57, 152.21 144.96, 220.59 64.92 M96.51 207.27 C144.23 150.73, 193.58 96.43, 218.25 64.89 M100.71 208.99 C128.35 176.7, 158.17 143.79, 221.15 68.32 M100.73 209.12 C126.12 179.63, 151.8 151.72, 219.8 70.32 M106.07 208.01 C133.31 176.11, 163.03 140.98, 224 74.43 M103.96 209.07 C137.31 171.5, 170.71 132.65, 222.97 73.93 M109.93 208.61 C134.78 179.99, 164.2 147.68, 223.64 79.52 M108.61 211.02 C143.99 168.6, 178.58 129.56, 223.07 78.23 M113.94 208.66 C149.82 168.62, 184.58 130.83, 225.37 81.37 M114.54 210.56 C140.26 181.78, 164.3 154.4, 227.11 80.27 M120.78 209.51 C153.3 171.25, 184.83 134.47, 226.59 88.01 M120.24 209.09 C149.54 174.41, 180.03 140.75, 226.9 87.12 M128.65 206.74 C148.25 180.78, 168.86 158.64, 226.42 91.28 M127.18 207.24 C157.15 172.76, 187.43 137.66, 227.37 91.2 M132.34 209.57 C153.06 184.93, 177.15 158.21, 228.92 97.91 M131.6 208.04 C163.86 171.5, 193.53 137.57, 229.71 95.96 M137.13 208.26 C160.99 180.33, 186.53 149.75, 229 100.6 M138.24 207.02 C169.32 169.99, 200.76 133.6, 229.9 102.83 M142.56 207.63 C166.86 182.58, 187.1 156.4, 228.08 106.79 M144.87 205.44 C173.73 173.42, 201.96 140.53, 230.28 108.58 M151.57 206.16 C174.92 175.16, 199.45 148.47, 227.38 115.04 M151.18 204.15 C175.86 176.04, 200.12 148.1, 227.56 115.49 M161.61 198.22 C182.58 171.14, 207.54 145.46, 224.92 126.23 M162.76 197.49 C178.93 178.39, 197.57 156.11, 225.63 125.25 M172.64 192.3 C184.52 174.52, 201.17 158.99, 222.75 133.75 M172.78 192.26 C183.29 179.84, 195.06 166.3, 221.53 134.86 M182.05 187.12 C190.68 174.6, 199.67 165.27, 218.77 144.71 M183.75 185.56 C197.12 169.34, 211.22 155.19, 219.07 146.56" stroke="#228be6" stroke-width="0.5" fill="none"></path><path d="M92.72 1.03 C105.35 -2.94, 121.3 -1.32, 135.18 1.25 C149.06 3.81, 164.04 9.55, 176.01 16.42 C187.99 23.29, 198.96 32.15, 207.04 42.49 C215.13 52.82, 221.03 66.16, 224.52 78.42 C228.02 90.67, 229.45 103.61, 228 116.03 C226.56 128.46, 222.6 141.85, 215.88 152.96 C209.16 164.07, 198.48 174.26, 187.67 182.69 C176.86 191.13, 164.41 199.25, 151.02 203.59 C137.63 207.94, 121.45 209.58, 107.32 208.77 C93.19 207.96, 78.95 204.4, 66.26 198.73 C53.56 193.06, 40.97 184.05, 31.15 174.77 C21.34 165.49, 12.59 154.61, 7.38 143.06 C2.17 131.51, -0.2 118.12, -0.1 105.49 C0.01 92.87, 3.1 79.29, 8.02 67.31 C12.94 55.33, 19.83 43.02, 29.43 33.64 C39.03 24.26, 54.63 16.41, 65.61 11.01 C76.59 5.61, 90 2.5, 95.31 1.24 C100.62 -0.01, 97.2 1.65, 97.48 3.46 M129.89 1.88 C143.5 2.03, 157.33 7.41, 169.2 13.25 C181.07 19.09, 192.18 27.23, 201.12 36.91 C210.05 46.6, 218.04 59.29, 222.8 71.36 C227.56 83.43, 230.26 96.59, 229.66 109.35 C229.06 122.11, 225.31 136.31, 219.2 147.91 C213.1 159.52, 203.38 170.39, 193.02 178.95 C182.66 187.52, 170.22 194.6, 157.04 199.3 C143.86 204, 128.13 207.06, 113.93 207.15 C99.73 207.25, 84.75 204.58, 71.84 199.86 C58.93 195.15, 46.66 187.19, 36.46 178.86 C26.26 170.52, 16.45 160.95, 10.64 149.86 C4.83 138.76, 2.4 125.43, 1.59 112.29 C0.78 99.15, 1.77 83.49, 5.8 71 C9.83 58.5, 16.98 46.87, 25.76 37.32 C34.54 27.77, 45.97 19.78, 58.47 13.68 C70.96 7.58, 89.21 2.86, 100.75 0.72 C112.3 -1.42, 123.03 0.5, 127.72 0.83 C132.41 1.16, 129.09 1, 128.89 2.69" stroke="#343a40" stroke-width="1" fill="none"></path></g><g transform="translate(584.9110794939422 463.2092590332031) rotate(0 66.5 14.5)"><text x="66.5" y="23" font-family="Helvetica, Segoe UI Emoji" font-size="25.275135869565233px" fill="#343a40" text-anchor="middle" style="white-space: pre;" direction="ltr">Visning-app</text></g><g stroke-linecap="round" transform="translate(22.804374007714443 384.83975147979413) rotate(0 35.3515625 32.53773834745766)"><path d="M47.17 2.63 C53.97 4.19, 60.93 9.15, 64.87 14.79 C68.81 20.43, 71.63 29.75, 70.8 36.47 C69.97 43.19, 65.12 50.47, 59.89 55.09 C54.66 59.72, 46.52 63.3, 39.42 64.21 C32.31 65.11, 23.66 63.89, 17.27 60.53 C10.89 57.17, 3.63 50.41, 1.11 44.05 C-1.41 37.69, -0.6 28.76, 2.15 22.37 C4.89 15.99, 11.47 9.45, 17.58 5.74 C23.7 2.04, 33.03 0.42, 38.83 0.15 C44.63 -0.13, 49.59 2.85, 52.37 4.09 C55.15 5.32, 56.02 7.31, 55.52 7.56 M39.03 0.04 C46.24 0.45, 56.78 4.5, 61.8 9.43 C66.81 14.36, 68.54 22.87, 69.1 29.61 C69.65 36.34, 68.9 44.01, 65.13 49.84 C61.36 55.67, 53.33 62.18, 46.47 64.58 C39.61 66.99, 30.95 66.67, 23.95 64.3 C16.94 61.92, 8.38 56.44, 4.43 50.34 C0.48 44.23, -0.87 34.64, 0.24 27.68 C1.36 20.72, 5.95 12.98, 11.12 8.58 C16.29 4.18, 26.56 2.49, 31.24 1.28 C35.92 0.07, 37.69 1.11, 39.19 1.29 C40.68 1.47, 40.02 1.84, 40.21 2.37" stroke="#000000" stroke-width="2" fill="none"></path></g><g stroke-linecap="round"><g transform="translate(54.292721465341685 449.68841365858293) rotate(0 -2.350630912327432 39.75916484163099)"><path d="M0.37 0.78 C-0.39 14.07, -3.36 66.17, -3.9 79.37 M-0.89 0.15 C-1.91 13.1, -4.67 64.49, -5.08 77.5" stroke="#000000" stroke-width="2" fill="none"></path></g></g><g stroke-linecap="round"><g transform="translate(50.99558163483272 530.6007547602746) rotate(0 15.720962068274844 23.50779430488359)"><path d="M0.78 -0.43 C6.12 7.63, 26.45 40.68, 31.71 48.72 M-0.27 -1.7 C4.99 5.97, 25.61 38.47, 31.01 46.91" stroke="#000000" stroke-width="2" fill="none"></path></g></g><g stroke-linecap="round"><g transform="translate(46.400772312800484 527.078508997565) rotate(0 -12.601160856751818 22.742749507875544)"><path d="M-0.43 0.48 C-4.85 7.98, -21.68 38.47, -26.12 45.8 M1.54 -0.32 C-3.01 6.81, -21.83 36.6, -26.75 44.26" stroke="#000000" stroke-width="2" fill="none"></path></g></g><g stroke-linecap="round"><g transform="translate(10.729561050143104 494.1846290904939) rotate(0 20.832691232522848 -13.076469480547303)"><path d="M0.48 0.61 C7.41 -3.78, 35.64 -22.31, 42.39 -26.76 M-0.73 -0.12 C6.08 -4.29, 35.22 -20.7, 42.03 -25.39" stroke="#000000" stroke-width="2" fill="none"></path></g></g><g stroke-linecap="round"><g transform="translate(51.04602998169577 466.40677200782716) rotate(0 14.345092428378223 18.49324899477415)"><path d="M0.61 1.1 C5.55 6.85, 24.34 29.17, 29.23 34.94 M-0.53 0.64 C4.26 6.52, 23.14 30.83, 28.11 36.35" stroke="#000000" stroke-width="2" fill="none"></path></g></g><g stroke-linecap="round" transform="translate(120.91784643517872 419.52227783203125) rotate(0 67.977294921875 60.224334716796875)"><path d="M0 0 C0 0, 0 0, 0 0 M0 0 C0 0, 0 0, 0 0 M0.44 6.45 C1.26 5.41, 2.14 3.31, 5.25 0.49 M0.11 6.26 C1.48 4.86, 3.14 3.32, 4.7 0.58 M0.84 12.09 C3.48 9.16, 8.47 2.71, 9.94 -1.24 M-0.38 11.67 C3.75 8.72, 8.15 4.14, 10.4 0.55 M0.51 17.95 C4.93 15.84, 6.66 9.73, 16.44 0.67 M-1.01 18.92 C4.12 13.53, 7.54 8.07, 16.03 -0.39 M0.32 23.98 C4.92 18.87, 9.44 12.53, 20.39 1.61 M-0.13 23.88 C8.04 14.22, 17.63 4.17, 21.38 0.45 M0.72 32.04 C6.13 21.07, 12.46 13.58, 26.61 0.2 M-0.41 29.9 C8.52 21.39, 16.21 11.5, 25.56 0.84 M0.34 35.88 C13.82 24.65, 24.09 7.03, 31.44 -0.82 M-0.42 37.65 C7.7 28.46, 14.98 19.66, 31.67 -0.98 M2.04 40.58 C7.54 33.45, 17.64 23.58, 35.1 -1.69 M0.8 43.23 C13.65 26.85, 27.54 12.57, 36.09 0.84 M0.71 47.96 C9.13 35.18, 20.24 24.72, 42.76 1.55 M0.45 49.32 C9.93 37.85, 19.63 25.07, 43.34 -0.4 M-0.3 52.57 C14.72 38.04, 29.56 22.68, 49.13 -1.75 M0.07 53.79 C9.83 43.73, 19.63 32.62, 47.42 1 M-0.63 62.84 C12.78 48.03, 27.16 30.62, 51.47 -1.67 M0.96 60.7 C13.77 46.14, 25.7 31.29, 52.64 -0.99 M1.52 69.02 C19.23 44.74, 38.39 19.37, 58.21 1.48 M0.3 66.85 C13.3 51.24, 26.77 35.92, 58.99 0.83 M1.2 72.61 C25.41 46.34, 48.13 17.12, 61.97 0.35 M-0.15 73 C24.35 47.33, 47.83 19.27, 62.94 0.73 M0.6 77.85 C17.89 58.42, 34.03 39.95, 68.14 1.7 M-0.52 80.04 C14.84 62.31, 29.61 44.63, 68.84 1 M-0.62 85.58 C14.86 69.6, 29.31 50.66, 75.94 1.64 M0.47 84.58 C27.99 54.82, 53.09 23.54, 73.7 -0.15 M1.33 92.5 C24.22 65.7, 44.52 42.4, 78.99 -1.2 M-0.26 90.92 C17.6 73.41, 33.42 54.48, 78.61 0.31 M0.7 97.04 C21.42 72.79, 46.42 46.08, 86.35 1.49 M-0.88 98.68 C21.95 72.09, 46 45.86, 85.5 0.13 M0.06 102.85 C27.72 69.11, 57.93 36.69, 91.11 0.91 M0.95 102.93 C35.39 63.74, 70.77 22.81, 90.56 0.7 M-1.81 108.22 C38.42 67.85, 76.06 21.83, 95.44 -1.65 M0.69 109.41 C36.19 68.73, 72.52 27.98, 95.02 -1.05 M-1.59 114.01 C26.5 83.37, 54.2 53.64, 99.14 -1.63 M1.12 115.13 C22.69 88.32, 46.02 61.51, 100.56 0.25 M1.87 120.1 C30.25 87.73, 58.8 52.41, 104.73 -0.05 M0.35 120.55 C25.19 90.73, 52.67 61.69, 106.07 0.34 M7.18 121.51 C28.68 94.03, 55.49 68.64, 109.99 1.74 M7.27 120.45 C46.14 77.04, 84.6 30.75, 111.07 0.19 M11.21 119.28 C39.61 86.07, 70.64 49.9, 116.38 1.94 M11.08 120.45 C43.2 85.08, 75.21 47.62, 115.88 0.72 M15.24 120.41 C50.45 81.23, 85.92 40.27, 120.87 -0.21 M17.29 119.77 C47.94 84.35, 80.43 48.47, 122.2 -0.11 M20.95 120.49 C44.86 94.31, 66.98 68.19, 125.79 -1.03 M22.44 121.47 C48.14 89.61, 72.36 60.89, 126.79 0.9 M26.81 119.51 C58.81 84.47, 89.64 52.04, 133.25 1.53 M26.27 121.1 C56.62 87.77, 85.13 56.49, 132.62 -0.16 M31.94 119.36 C69.61 77.38, 104.52 39.23, 135.02 -0.11 M32.42 121.81 C55.62 94.96, 75.81 71.67, 136.6 0.34 M37.94 123.27 C65.56 89.12, 91.57 58.64, 136.98 4.97 M37.96 120.58 C57.47 98.02, 77.45 75.17, 136.75 7.49 M43.31 121.73 C60.78 99.73, 82.25 76.13, 137.52 11.85 M42.64 121.81 C64.01 96.87, 83.77 73.18, 136.37 12.19 M50 119.67 C84.55 79.16, 117.89 38.7, 136.77 20.77 M47.24 121.25 C83.34 82.19, 117.32 42.01, 136.14 19.86 M54.48 121.65 C86.17 84.21, 118.78 46.26, 139.08 23.32 M53.34 120.93 C82.88 88.57, 111.08 54.23, 136.28 25.36 M58.31 123.1 C78.9 96.93, 100.31 76.01, 136.85 31.82 M59.77 121.03 C88.3 87.3, 117.53 53.22, 137.23 32.1 M63.16 119.41 C90.18 90.77, 117.53 59.13, 138.91 35.31 M64.35 120.79 C90.7 91.85, 114.41 63.04, 137.79 36.73 M69.44 121.22 C84.82 107.42, 97.45 89.14, 135.15 44.73 M70.31 120.46 C87.95 99.15, 106.28 77.56, 136.49 44.02 M75.31 119.51 C88.15 105.41, 103.94 85.03, 136.84 48.82 M74.1 120.15 C89.63 105.46, 103.53 90.03, 135.78 49.56 M79.27 120.87 C93.34 103.14, 107.92 88.06, 136.56 55.59 M79.74 121.76 C95.12 103.87, 110.5 84.71, 136.66 54.84 M87.2 120.65 C105.76 99.32, 126.1 74.25, 137.97 63.77 M86.65 119.9 C98.98 104.75, 111.24 89.68, 136.26 61.5 M90.94 122.15 C108.17 102.48, 123.77 84.23, 138.26 68.71 M90.04 121.77 C104.94 104.56, 119.52 88.09, 137.09 66.9 M95.36 121.78 C106.14 108.16, 116.88 98.05, 138.7 73.61 M96.68 120.08 C112.03 104.83, 125.93 86.95, 137.34 74.09 M100.9 120.33 C115.26 107.52, 126.26 90.43, 135.03 79.39 M101.3 120.96 C114.05 106.32, 127.12 91.4, 136.08 81.44 M106.64 120.05 C118.7 108.28, 127.72 96.1, 135.35 84.2 M106.44 120.86 C118.48 107.6, 130.26 95.55, 136.91 86.78 M112.85 119.93 C117.68 112.75, 124.72 107.09, 135.92 92.85 M112.73 120.46 C118.38 114.38, 125.45 106.32, 136.53 92.59 M116.11 120.83 C121.49 114.49, 124.22 110.57, 137.56 96.67 M116.82 121.57 C123 113.1, 129.9 105.54, 136.97 98.63 M123.8 120.69 C126.99 114.97, 131.28 110.17, 138.27 102.82 M121.64 121.03 C127.82 113.73, 133.7 108.32, 136.94 104.87 M128.85 120.08 C130.69 117.38, 133.48 115.63, 137.29 110.39 M128.28 121.34 C131.82 117.1, 134.13 113.35, 136.25 110.4 M133.46 120.64 C134.81 119.86, 135.06 118.82, 136.93 117.15 M132.99 121.4 C134.46 119.25, 136.04 118, 137.14 116.76" stroke="#ced4da" stroke-width="0.5" fill="none"></path><path d="M-1.47 0.94 C34.88 1.3, 66.1 -1.15, 136.55 1.83 M-0.54 -0.06 C46.83 1.38, 94.71 0.58, 135.19 0.1 M136.16 0.22 C135.71 34.11, 136.25 73.38, 135.98 120.41 M135.44 0.67 C136.28 45.75, 135.74 90.26, 136.56 119.89 M134.69 121.14 C94.08 118.89, 54.29 119.78, -0.49 122.36 M135.74 119.64 C103.54 120.26, 72 120.86, 0.64 119.56 M1.4 119.26 C0.88 91.9, -1.01 58.92, -0.82 -0.93 M0.75 120.83 C-0.45 91.94, -0.87 63.74, 0.35 0.26" stroke="#343a40" stroke-width="1" fill="none"></path></g><g transform="translate(152.39514135705372 468.2466125488281) rotate(0 36.5 11.5)"><text x="36.5" y="18" font-family="Helvetica, Segoe UI Emoji" font-size="20px" fill="#343a40" text-anchor="middle" style="white-space: pre;" direction="ltr">Browser</text></g><g stroke-linecap="round" transform="translate(333.04221864500016 10) rotate(0 102.830810546875 91.98080444335938)"><path d="M35.49 21.57 C35.49 21.57, 35.49 21.57, 35.49 21.57 M35.49 21.57 C35.49 21.57, 35.49 21.57, 35.49 21.57 M14.65 54.56 C19.69 44.46, 27.64 36.67, 45.12 17.2 M12.77 53.47 C22.98 41.29, 33.42 29.28, 43.94 16.62 M8.91 61.65 C23.13 44.65, 35.91 31.27, 54.25 12.77 M10 62.72 C27.12 43.48, 42.42 26.91, 54.31 12.59 M7.18 73.61 C27.99 48.68, 51.75 22.91, 62.15 7.89 M7.99 71.66 C24.44 50.33, 43.16 30.29, 62.82 8.37 M-0.75 85.21 C26.4 54.24, 54.11 23.56, 69.93 3.35 M0.51 84.8 C24.27 57.68, 48.25 30.65, 71.57 3.62 M2.37 91.98 C20.8 65.9, 44.43 43.68, 75.5 7.33 M0.43 90.8 C23.15 66.74, 43.99 41.87, 74.04 6.21 M4.31 97.18 C21.73 76.66, 37.55 52.6, 81.04 6.14 M2.44 96.13 C29.33 64.68, 57.42 32.64, 81.38 6.72 M4.74 99.77 C34.67 66.37, 66.14 30.36, 88.58 5.38 M3.31 100.76 C26.27 73.61, 50.3 45.07, 87.79 4.29 M5.16 106.42 C27.74 84.45, 45.72 57.68, 92.93 4.28 M3.57 106.91 C25.26 84.05, 43.85 60.24, 92.18 4.69 M4.69 112.41 C24.14 89.27, 45.38 65.75, 98.84 3.39 M4.06 111.66 C41.57 70.3, 76.39 30.95, 97.17 4.69 M7.28 116.15 C31.16 90.86, 53.61 62.54, 104.17 2.77 M4.97 118.16 C23.85 94.18, 44.34 69.54, 102.96 4.05 M4.12 121 C43 79.57, 81.7 33.91, 110.97 -0.59 M4.94 123.22 C40.62 80.89, 76.34 39.54, 112.31 1.6 M8.77 125.3 C29.99 100.97, 54.51 73.94, 115.52 0.02 M8.12 126.02 C44.24 86.61, 77.77 47.02, 117.23 1.72 M9.78 131.55 C43.4 89.34, 77.97 48.94, 119.78 3.55 M11.39 129 C48.15 83.98, 88.53 39.36, 120.32 3.67 M12.34 132.81 C35.08 107.69, 59.14 77.05, 127.46 4.23 M11.96 133.02 C42.63 100.86, 72.28 67.09, 125.54 2.28 M14.18 138.14 C54.72 88.52, 96.12 40.04, 129.13 3.27 M15.92 136.52 C54.79 89.47, 95.96 44.55, 129.17 4.38 M16.7 138.57 C44.75 109.35, 75.43 76.87, 135.97 3.5 M17.25 140.14 C47.61 105.78, 77.36 71.08, 134.27 5.15 M17.41 143.25 C56.34 101.37, 91.58 59.43, 137.61 4.82 M18.96 144.66 C44.6 113.27, 71.71 83.05, 138.39 6.35 M21.79 149.17 C67.25 93.3, 114.45 37.33, 141.34 6.42 M20.81 147.42 C51.28 113.47, 80.9 78.37, 143.45 8.17 M23.77 149.35 C68.17 101.03, 109.7 51.93, 145.79 9.15 M24.49 150.19 C52.44 119.34, 79.1 88.01, 147.31 10.38 M24.85 154.72 C58.22 116.49, 95.63 75.07, 150.18 12.05 M26.58 153.84 C62.55 111.81, 101.13 67.68, 149.73 10.55 M28.57 156.62 C58.31 120.42, 89.98 84.75, 154.78 12.69 M29.8 156.51 C77.81 99.89, 127.13 42.6, 152.65 13.14 M31.03 157.47 C57.52 130.05, 81.56 101.98, 157.33 15.42 M33.26 159 C78.56 105.58, 124.23 53.5, 157.37 15.42 M38.02 162.71 C74.78 115.7, 117.44 71.48, 160.97 17.05 M36.44 160.43 C75.92 117.9, 113.58 72.99, 160.23 17.92 M40.82 161.46 C69.15 128.79, 94.78 97.89, 161.95 19.77 M40.69 163.64 C82.75 113.86, 125.63 64.16, 163.2 21.03 M45.34 163 C68.48 134.26, 93.38 104.48, 167.44 22.1 M43.26 165.39 C84.68 116.52, 125.83 69.49, 167.37 22.68 M45.97 167.67 C79.61 132.94, 109.27 93.85, 169.43 22.57 M46.83 167.93 C72.88 136.91, 100.97 104.16, 171.69 23.76 M49.34 167.84 C100.22 111.67, 145.36 56.64, 174.48 26.66 M50.08 169.73 C95.99 118.14, 140.42 67.41, 174.46 27.75 M53.51 170.31 C98.76 117.38, 148.85 66.11, 179.51 27.75 M52.71 172.62 C91.34 127.65, 129.84 84.63, 177.94 29.41 M55.09 173.53 C85.39 140.36, 114.48 107.23, 178.37 30.29 M57.26 174.67 C92.81 130.23, 130.21 87.79, 180.67 32.64 M59.74 174.79 C98.9 133.62, 140.39 85.35, 182.21 33.49 M59.48 176.14 C89.03 143.78, 117.32 112.25, 182.65 35.92 M65.95 178.6 C100.31 136.23, 139.74 91.46, 186.67 37.75 M64.8 177.58 C106.8 126.48, 151.97 76.83, 184.32 39.45 M70.88 176.72 C112.59 124.04, 159.74 69.89, 187.08 42.38 M70.04 178.54 C109.17 131.79, 147.93 87.15, 186.44 42.59 M74.21 181.04 C108.47 138.1, 144.8 98.46, 190.19 46.76 M73.96 178.2 C120.06 126.43, 166.08 72.54, 189.76 45.7 M76.51 181.75 C115.64 132.83, 156.88 90.66, 192.68 48.77 M77.48 180.28 C105.83 146.39, 135.35 112.6, 192.19 48.37 M82.5 181.58 C119.91 138.43, 158.21 92.93, 194.35 53.02 M81.66 180.94 C119.87 136.56, 159.03 94.45, 195.83 52.28 M86.1 183.44 C118.45 145.27, 152.69 105.11, 195.86 53.48 M86.6 181.19 C129.18 134.48, 172.27 85.9, 197.45 55.63 M89.68 184.65 C113.41 157.71, 137.57 132.47, 199.91 57.71 M91.39 182.83 C128.64 138.57, 164.94 95.56, 199.5 58 M95.77 185.58 C121.54 154.02, 145.73 124.87, 200.41 62.79 M95.67 183.78 C133.79 139.2, 172.56 94.39, 200.01 64.1 M98.26 183.9 C138.32 141.78, 173.29 99.74, 202.23 67.98 M99.59 184.05 C130.91 148.41, 160.9 114.93, 202.18 69.06 M104.2 185.44 C138.14 149.11, 169.73 114.14, 203.06 74.44 M105.37 185.39 C129.45 158.24, 152.47 130.33, 202.96 73.92 M112.29 183.19 C141.27 150.6, 168.35 118.58, 202.56 76.92 M112.6 183.9 C139.34 152.25, 165.93 122.66, 204 78.01 M118.04 184.99 C148.84 150.36, 174.52 115.31, 204.13 82.9 M117.16 182.53 C143.64 154.87, 167.31 126.51, 204.26 81.85 M122.85 180.89 C141.54 164.02, 157.65 143.18, 206.79 85.85 M123.11 182.11 C149.8 151.78, 175.77 122.1, 205.57 87.07 M129.25 181.68 C146.71 162.4, 165.38 141.63, 206.92 92.35 M129.65 180.62 C157.9 151.1, 184.24 119.42, 207.23 93.3 M136.63 179.79 C159.67 152.88, 182.14 125.71, 206.77 98.57 M135.73 179.78 C151.77 162.71, 167.75 144.89, 208.26 97.34 M142.42 180.95 C157.48 161.7, 177.72 141.92, 206.36 104.21 M140.91 179.47 C162.44 155.68, 183.16 130.67, 206.12 104.84 M149.85 173.15 C169.54 157.08, 184.7 134.35, 205.74 113.13 M151.95 174.37 C166.08 158.53, 181.26 140.27, 204.69 113.62 M160.58 168.63 C170.18 160.37, 177.61 150.7, 203.67 121.86 M161.25 170.69 C173.16 155.81, 186.27 140.3, 201.79 121.92" stroke="#ced4da" stroke-width="0.5" fill="none"></path><path d="M141.61 6.28 C153.91 9.41, 166.66 18.66, 176.05 27.13 C185.43 35.6, 192.89 45.93, 197.93 57.1 C202.97 68.27, 206.36 82.18, 206.3 94.15 C206.25 106.13, 203.15 117.98, 197.6 128.95 C192.05 139.91, 182.86 151.83, 173.01 159.93 C163.17 168.02, 151.1 173.65, 138.52 177.52 C125.94 181.38, 110.92 183.56, 97.53 183.12 C84.15 182.68, 70.18 179.72, 58.22 174.89 C46.25 170.05, 34.53 162.87, 25.76 154.12 C17 145.36, 9.93 133.85, 5.62 122.34 C1.31 110.84, -1.01 97.09, -0.09 85.08 C0.83 73.07, 5.24 60.84, 11.12 50.3 C17.01 39.77, 25.06 29.6, 35.23 21.87 C45.4 14.14, 59.41 7.49, 72.13 3.93 C84.85 0.37, 98.87 -0.28, 111.54 0.49 C124.22 1.25, 141.44 6.29, 148.19 8.52 C154.95 10.75, 153.01 12.41, 152.07 13.89 M61.29 7.53 C72.5 1.69, 89 0.62, 102.63 0.64 C116.26 0.67, 130.77 3.2, 143.06 7.68 C155.35 12.16, 167.04 19.15, 176.36 27.52 C185.67 35.9, 194.15 46.96, 198.95 57.92 C203.75 68.88, 205.71 81.23, 205.17 93.28 C204.63 105.33, 201.2 119.13, 195.71 130.24 C190.22 141.34, 181.68 151.69, 172.24 159.91 C162.81 168.12, 151.63 175.42, 139.12 179.55 C126.61 183.68, 110.4 185.54, 97.2 184.66 C84 183.78, 71.83 179.3, 59.92 174.24 C48.02 169.18, 34.73 163.1, 25.76 154.3 C16.8 145.49, 10.25 132.7, 6.13 121.41 C2.01 110.12, -0.02 98.61, 1.04 86.57 C2.1 74.54, 6.7 60.2, 12.49 49.21 C18.28 38.21, 27.64 27.64, 35.77 20.62 C43.9 13.59, 56.51 9.08, 61.27 7.06 C66.04 5.04, 63.59 7.06, 64.34 8.49" stroke="#343a40" stroke-width="1" fill="none"></path></g><g transform="translate(397.37302919187516 90.48080444335938) rotate(0 38.5 11.5)"><text x="38.5" y="18" font-family="Helvetica, Segoe UI Emoji" font-size="20px" fill="#343a40" text-anchor="middle" style="white-space: pre;" direction="ltr">IDporten</text></g><g stroke-linecap="round"><g transform="translate(1019.2244289972073 415.737239121185) rotate(0 59.54661584823998 68.29744132043066)" fill-rule="evenodd"><path d="M1.91 5.48 L0.45 134.45 L0.25 134.9 L15.41 141.41 L28.45 143.65 L62.97 145.31 L97.28 140.95 L109.3 138.8 L118.71 136.84 L119.07 4.32 L116.96 2.68 L111.24 -2.96 L98.89 -3.13 L56.57 -6.28 L29.91 -5.92 L14.89 -2.47 L4.99 -0.81 L-0.6 2.78" stroke="none" stroke-width="0" fill="#ced4da" fill-rule="evenodd"></path><path d="M-0.25 4.11 C-0.24 23.39, -0.85 98.05, -0.73 119.65 C-0.61 141.25, -0.62 130.56, 0.46 133.69 C1.54 136.81, 1.45 136.77, 5.75 138.42 C10.06 140.07, 16.92 142.43, 26.3 143.6 C35.69 144.77, 50.34 145.6, 62.06 145.43 C73.78 145.26, 87.79 143.98, 96.6 142.58 C105.42 141.19, 111.37 138.79, 114.96 137.06 C118.55 135.33, 117.44 134.7, 118.13 132.22 C118.82 129.74, 119.29 141.93, 119.11 122.16 C118.93 102.4, 117.28 33.18, 117.07 13.64 C116.85 -5.91, 118.91 7.37, 117.8 4.88 C116.68 2.38, 114.36 0.48, 110.37 -1.32 C106.37 -3.13, 102.54 -4.7, 93.84 -5.95 C85.13 -7.21, 69.18 -8.77, 58.13 -8.85 C47.08 -8.93, 36.29 -7.66, 27.54 -6.43 C18.79 -5.2, 10.22 -3.1, 5.65 -1.46 C1.09 0.18, 1.21 2.58, 0.16 3.43 C-0.89 4.28, -0.51 3.41, -0.64 3.66 M1.8 2.88 C2.24 22.35, 1.7 99.49, 1.39 120.94 C1.07 142.38, -0.82 128.5, -0.09 131.55 C0.65 134.6, 1.13 137.17, 5.8 139.23 C10.48 141.29, 18.44 143.02, 27.96 143.89 C37.47 144.76, 51.41 144.93, 62.89 144.46 C74.37 143.99, 87.77 142.37, 96.83 141.07 C105.89 139.77, 113.99 138.38, 117.26 136.66 C120.53 134.94, 115.96 133.23, 116.45 130.77 C116.94 128.32, 120.14 141.33, 120.19 121.93 C120.25 102.52, 117.39 33.84, 116.78 14.33 C116.16 -5.17, 117.49 7.62, 116.49 4.9 C115.5 2.19, 114.7 -0.04, 110.8 -1.97 C106.9 -3.9, 101.74 -5.94, 93.08 -6.67 C84.42 -7.4, 69.63 -6.56, 58.83 -6.35 C48.03 -6.13, 37.29 -6.22, 28.27 -5.37 C19.24 -4.52, 9.57 -2.67, 4.69 -1.23 C-0.19 0.21, -0.46 2.5, -1.02 3.28 C-1.59 4.07, 1.19 3.47, 1.28 3.48" stroke="#000000" stroke-width="1" fill="none"></path></g></g><g stroke-linecap="round" transform="translate(1020.1650485906198 406.30642889819273) rotate(0 58.895721029833794 11.911216487581214)"><path d="M79.51 1.26 C89.56 1.82, 100.89 3.32, 107.22 4.95 C113.55 6.57, 117.4 8.9, 117.48 11.03 C117.56 13.16, 114.04 15.55, 107.69 17.72 C101.34 19.89, 89.98 23.17, 79.36 24.03 C68.75 24.89, 54.91 23.73, 44.01 22.9 C33.11 22.06, 21.1 20.64, 13.94 19.03 C6.79 17.42, 2.17 15.19, 1.09 13.22 C0.01 11.25, 2.55 9.23, 7.44 7.21 C12.34 5.19, 20.69 2.33, 30.47 1.1 C40.26 -0.14, 57.19 -0.17, 66.13 -0.19 C75.07 -0.22, 80.34 0.63, 84.12 0.94 C87.89 1.26, 89.04 1.29, 88.76 1.67 M63.12 -0.18 C73.7 -0.31, 85.79 -0.21, 94.75 1.23 C103.7 2.66, 113.42 6.2, 116.86 8.4 C120.31 10.6, 118.98 12.27, 115.4 14.41 C111.83 16.54, 104.33 19.55, 95.41 21.21 C86.49 22.87, 73.35 24.05, 61.9 24.38 C50.45 24.71, 36.47 24.46, 26.71 23.16 C16.94 21.87, 7.76 18.86, 3.29 16.6 C-1.18 14.35, -2.66 12.03, -0.11 9.63 C2.43 7.23, 10.34 3.69, 18.57 2.22 C26.8 0.76, 42 1.15, 49.26 0.85 C56.52 0.55, 59.93 0.72, 62.13 0.42 C64.33 0.12, 62.36 -1.33, 62.47 -0.95" stroke="none" stroke-width="0" fill="#fff"></path><path d="M47.02 -0.23 C57.05 -0.9, 71.2 -0.18, 81.34 0.81 C91.48 1.8, 101.93 3.8, 107.88 5.7 C113.84 7.59, 117.5 9.96, 117.07 12.18 C116.64 14.4, 111.94 17.19, 105.31 19.01 C98.67 20.84, 87.71 22.34, 77.29 23.12 C66.86 23.9, 53.62 24.38, 42.76 23.68 C31.9 22.99, 19.21 20.64, 12.14 18.95 C5.07 17.26, 0.97 15.66, 0.34 13.53 C-0.29 11.4, 2.78 8.39, 8.36 6.19 C13.93 3.98, 26.89 1.45, 33.82 0.29 C40.74 -0.87, 47.04 -0.74, 49.9 -0.79 C52.75 -0.83, 50.8 -0.18, 50.94 0.03 M62.71 -0.76 C73.63 -0.38, 87.82 2.46, 96.75 4.11 C105.67 5.77, 113.06 7.44, 116.25 9.19 C119.44 10.93, 119.76 12.48, 115.86 14.59 C111.96 16.7, 102 20.18, 92.85 21.86 C83.7 23.54, 71.9 24.66, 60.95 24.66 C50.01 24.65, 36.57 23.18, 27.19 21.82 C17.81 20.45, 9.24 18.42, 4.67 16.47 C0.1 14.52, -2.32 12.23, -0.24 10.12 C1.85 8.02, 8.65 5.42, 17.18 3.84 C25.71 2.27, 42.99 1.39, 50.95 0.67 C58.91 -0.04, 62.98 -0.53, 64.93 -0.44 C66.88 -0.34, 63.08 1.04, 62.64 1.22" stroke="#000000" stroke-width="1" fill="none"></path></g><g transform="translate(1042.0993514264983 460.0551428416418) rotate(0 39.613734654017776 30.370529901413647)"><text x="0" y="24.370529901413626" font-family="Helvetica, Segoe UI Emoji" font-size="26.409156436011845px" fill="#343a40" text-anchor="start" style="white-space: pre;" direction="ltr">Aktive </text><text x="0" y="54.74105980282725" font-family="Helvetica, Segoe UI Emoji" font-size="26.409156436011845px" fill="#343a40" text-anchor="start" style="white-space: pre;" direction="ltr">saker</text></g><g transform="translate(32.01704115864095 336.7835073319692) rotate(0 29.5 11.5)"><text x="0" y="18" font-family="Helvetica, Segoe UI Emoji" font-size="20px" fill="#343a40" text-anchor="start" style="white-space: pre;" direction="ltr">Bruker</text></g><g stroke-linecap="round"><g transform="translate(267.74144127024806 486.39900328621025) rotate(0 126.95532654669668 -1.0605216799570485)"><path d="M0.55 -0.3 C43.1 -0.44, 212.02 -1.86, 254.54 -1.82 M-0.63 -1.51 C41.82 -1.43, 210.8 -0.67, 253.47 -0.74" stroke="#343a40" stroke-width="1" fill="none"></path></g><g transform="translate(267.74144127024806 486.39900328621025) rotate(0 126.95532654669668 -1.0605216799570485)"><path d="M224.75 9.09 C230.47 8.47, 239.98 4.37, 253.27 -2.14 M226.04 10.05 C235.61 4.94, 245.67 1.96, 253.96 0.12" stroke="#343a40" stroke-width="1" fill="none"></path></g><g transform="translate(267.74144127024806 486.39900328621025) rotate(0 126.95532654669668 -1.0605216799570485)"><path d="M224.79 -11.43 C230.33 -7.27, 239.83 -6.58, 253.27 -2.14 M226.08 -10.47 C235.58 -8.28, 245.63 -3.94, 253.96 0.12" stroke="#343a40" stroke-width="1" fill="none"></path></g></g><g stroke-linecap="round"><g transform="translate(516.8196360247124 452.99184647817447) rotate(0 -119.71991955191032 -0.9843283360544319)"><path d="M0.53 -0.78 C-39.46 -1.44, -198.91 -2.99, -238.94 -3.4 M-0.65 1.43 C-40.89 0.85, -200.55 -1.65, -239.97 -2.26" stroke="#343a40" stroke-width="1" fill="none"></path></g><g transform="translate(516.8196360247124 452.99184647817447) rotate(0 -119.71991955191032 -0.9843283360544319)"><path d="M-212.92 -12.34 C-223.68 -9.62, -234.26 -5.84, -237.98 -3.78 M-211.26 -11.58 C-218.83 -8.34, -227.51 -6.48, -239.05 -1.29" stroke="#343a40" stroke-width="1" fill="none"></path></g><g transform="translate(516.8196360247124 452.99184647817447) rotate(0 -119.71991955191032 -0.9843283360544319)"><path d="M-213.24 8.18 C-223.98 3.06, -234.43 -1, -237.98 -3.78 M-211.58 8.94 C-219.14 6.73, -227.75 3.16, -239.05 -1.29" stroke="#343a40" stroke-width="1" fill="none"></path></g></g><g stroke-linecap="round"><g transform="translate(483.3334408558552 201.83838387763933) rotate(0 57.45829946491875 88.97198973563508)"><path d="M-0.26 -0.63 C19.01 29.05, 96.01 148.69, 115.18 178.57 M1.8 1.65 C20.95 30.94, 95.53 147.66, 114.18 176.85" stroke="#343a40" stroke-width="1" fill="none"></path></g><g transform="translate(483.3334408558552 201.83838387763933) rotate(0 57.45829946491875 88.97198973563508)"><path d="M89.3 158.46 C97.93 162.55, 104.33 167.2, 113.15 175.02 M90.47 159.31 C100.31 166.73, 109.29 173.61, 113.69 176.98" stroke="#343a40" stroke-width="1" fill="none"></path></g><g transform="translate(483.3334408558552 201.83838387763933) rotate(0 57.45829946491875 88.97198973563508)"><path d="M106.59 147.41 C110.74 154.36, 112.61 161.9, 113.15 175.02 M107.76 148.26 C110.91 159.87, 113.14 171.07, 113.69 176.98" stroke="#343a40" stroke-width="1" fill="none"></path></g></g><g stroke-linecap="round"><g transform="translate(947.031278191786 284.3217205386902) rotate(0 -85.90279144180283 64.38079343209978)"><path d="M-0.69 0 C-29.27 21.49, -143.76 108.3, -172.59 129.8 M1.15 -1.04 C-27.4 20.01, -143.7 106.13, -172.96 128.01" stroke="#343a40" stroke-width="1" fill="none"></path></g><g transform="translate(947.031278191786 284.3217205386902) rotate(0 -85.90279144180283 64.38079343209978)"><path d="M-156.45 104.8 C-158.7 108.18, -163.51 112.22, -174.91 128.58 M-155.87 102.92 C-163.25 111.99, -168.42 123, -172.05 128.06" stroke="#343a40" stroke-width="1" fill="none"></path></g><g transform="translate(947.031278191786 284.3217205386902) rotate(0 -85.90279144180283 64.38079343209978)"><path d="M-144.21 121.27 C-149.15 121.12, -156.53 121.7, -174.91 128.58 M-143.63 119.39 C-155.6 122.31, -165.41 127.07, -172.05 128.06" stroke="#343a40" stroke-width="1" fill="none"></path></g></g><g stroke-linecap="round"><g transform="translate(969.4163714190238 182.4683877409318) rotate(0 58.95833086616085 64.3442663991483)" fill-rule="evenodd"><path d="M-0.28 -1.97 L-1.42 129.25 L0.42 131.14 L14.25 137.9 L28.5 139.76 L63.65 142.03 L97.96 137.86 L108.22 135.06 L116.03 132.21 L119.86 0.16 L118.18 -1.05 L108.79 -6.73 L98.53 -6.79 L57.01 -12.11 L29.74 -9.58 L15.61 -8.06 L6.01 -3.81 L1.03 0.49" stroke="none" stroke-width="0" fill="#ced4da" fill-rule="evenodd"></path><path d="M1.15 0.1 C1.43 19.29, 0.88 94.68, 0.79 116.2 C0.71 137.71, -0.03 126.32, 0.66 129.19 C1.35 132.06, 0.32 131.79, 4.93 133.42 C9.54 135.06, 18.45 137.8, 28.31 139.02 C38.16 140.23, 52.43 140.76, 64.07 140.72 C75.72 140.68, 89.69 140.14, 98.16 138.77 C106.64 137.4, 111.48 134.3, 114.94 132.52 C118.41 130.74, 118.29 130.49, 118.96 128.09 C119.63 125.69, 118.97 138.05, 118.95 118.12 C118.92 98.19, 119.22 28.27, 118.82 8.53 C118.41 -11.2, 118.08 2, 116.52 -0.29 C114.96 -2.57, 113.07 -3.8, 109.45 -5.19 C105.83 -6.58, 103.45 -7.6, 94.82 -8.61 C86.2 -9.61, 68.68 -11.04, 57.7 -11.23 C46.72 -11.41, 37.54 -10.89, 28.92 -9.69 C20.31 -8.5, 10.9 -5.53, 6.02 -4.04 C1.13 -2.54, 0.56 -1.33, -0.38 -0.72 C-1.32 -0.1, 0.48 -0.49, 0.37 -0.36 M0.29 -0.89 C0.53 18.46, 0.07 93.04, 0.06 114.37 C0.05 135.69, -0.52 123.78, 0.23 127.04 C0.98 130.31, 0.04 131.93, 4.56 133.96 C9.08 136, 17.73 138.31, 27.36 139.25 C36.99 140.2, 50.95 139.9, 62.32 139.63 C73.69 139.35, 86.41 138.87, 95.56 137.61 C104.72 136.35, 113.56 133.89, 117.25 132.09 C120.94 130.29, 117.27 129.15, 117.72 126.82 C118.18 124.49, 119.67 137.77, 119.96 118.11 C120.24 98.46, 119.75 28.69, 119.46 8.9 C119.17 -10.89, 119.89 1.78, 118.21 -0.62 C116.54 -3.02, 113.35 -4.22, 109.41 -5.51 C105.48 -6.81, 103.13 -7.41, 94.59 -8.37 C86.05 -9.33, 69.5 -10.72, 58.19 -11.27 C46.88 -11.82, 35.55 -12.46, 26.73 -11.66 C17.9 -10.85, 10.02 -8.29, 5.26 -6.47 C0.5 -4.64, -0.82 -1.71, -1.83 -0.69 C-2.84 0.34, -0.94 -0.13, -0.82 -0.3" stroke="#000000" stroke-width="1" fill="none"></path></g></g><g stroke-linecap="round" transform="translate(970.3334490179234 168.55761542728055) rotate(0 58.895721029833794 11.911216487581243)"><path d="M60.52 -0.05 C71.07 -0.15, 84.86 1.47, 93.94 2.84 C103.01 4.21, 111.4 6.02, 114.95 8.19 C118.5 10.37, 118.12 13.82, 115.22 15.89 C112.33 17.97, 105.88 19.44, 97.58 20.64 C89.28 21.84, 76.59 22.89, 65.41 23.11 C54.24 23.33, 40.38 23.07, 30.54 21.98 C20.69 20.89, 11.48 18.58, 6.35 16.57 C1.21 14.57, -1.75 11.95, -0.26 9.94 C1.22 7.92, 7.44 6.07, 15.28 4.49 C23.12 2.91, 38.06 1.1, 46.78 0.43 C55.5 -0.23, 62.68 0.61, 67.6 0.5 C72.51 0.39, 76.31 -0.32, 76.26 -0.22 M41.82 -0.55 C51.9 -1.66, 66.56 -1.19, 77.1 -0.1 C87.64 0.98, 98.15 4.06, 105.07 5.96 C111.98 7.85, 118.07 9.4, 118.59 11.26 C119.11 13.12, 114.05 15.14, 108.19 17.11 C102.34 19.09, 93.44 22.23, 83.48 23.11 C73.53 24, 59.36 23.09, 48.47 22.41 C37.58 21.73, 26.29 20.54, 18.14 19.05 C9.98 17.55, 1.75 15.49, -0.48 13.43 C-2.71 11.37, -0.08 8.89, 4.75 6.71 C9.57 4.52, 22.4 1.37, 28.48 0.32 C34.56 -0.73, 38.93 0.25, 41.23 0.39 C43.52 0.54, 41.87 0.75, 42.24 1.2" stroke="none" stroke-width="0" fill="#fff"></path><path d="M71.39 -0.58 C81.94 -0.34, 95.61 1.86, 103.39 3.67 C111.17 5.48, 116.63 7.95, 118.06 10.27 C119.5 12.6, 117.29 15.63, 111.99 17.63 C106.69 19.63, 96.11 21.21, 86.29 22.26 C76.47 23.31, 64.03 24.04, 53.09 23.93 C42.16 23.82, 29.13 23.29, 20.67 21.62 C12.22 19.94, 5.35 16.18, 2.37 13.9 C-0.62 11.62, -0.95 9.77, 2.75 7.94 C6.44 6.12, 15.16 4.18, 24.54 2.97 C33.93 1.76, 49.59 0.9, 59.07 0.69 C68.55 0.47, 76.34 1.37, 81.4 1.69 C86.46 2.02, 89.73 2.46, 89.45 2.63 M50.71 -1.2 C61.25 -1.76, 76 -0.01, 85.76 1.1 C95.52 2.2, 103.9 3.59, 109.27 5.44 C114.65 7.3, 119.14 9.94, 118.03 12.25 C116.92 14.55, 109.93 17.26, 102.61 19.27 C95.29 21.29, 84.74 23.64, 74.13 24.34 C63.51 25.04, 49.32 24.33, 38.91 23.48 C28.5 22.62, 18.24 21.15, 11.68 19.22 C5.13 17.28, -0.07 14.43, -0.42 11.86 C-0.76 9.29, 3.09 5.45, 9.61 3.8 C16.13 2.15, 31.53 2.49, 38.69 1.95 C45.86 1.41, 50.57 0.98, 52.6 0.57 C54.62 0.15, 51.05 -0.53, 50.87 -0.54" stroke="#000000" stroke-width="1" fill="none"></path></g><g transform="translate(992.2677518538023 222.30632937072937) rotate(0 29.5 15)"><text x="0" y="24" font-family="Helvetica, Segoe UI Emoji" font-size="26.409156436011845px" fill="#343a40" text-anchor="start" style="white-space: pre;" direction="ltr">Arkiv</text></g><g stroke-linecap="round"><g transform="translate(777.6141393729266 465.7572622147816) rotate(0 116.14993431211582 3.5140214536764915)"><path d="M-0.78 1.12 C38.12 2.26, 194.29 5.49, 233.08 6.36 M1 0.67 C39.79 1.5, 193.29 3.96, 232.18 4.57" stroke="#343a40" stroke-width="1" fill="none"></path></g><g transform="translate(777.6141393729266 465.7572622147816) rotate(0 116.14993431211582 3.5140214536764915)"><path d="M205.7 14.53 C212.59 10.23, 220.23 9.24, 234.03 5.16 M204.05 13.76 C216.1 10.27, 227.2 7.47, 231.67 4.56" stroke="#343a40" stroke-width="1" fill="none"></path></g><g transform="translate(777.6141393729266 465.7572622147816) rotate(0 116.14993431211582 3.5140214536764915)"><path d="M206.03 -5.99 C212.75 -4.74, 220.3 -0.19, 234.03 5.16 M204.38 -6.76 C216.16 -2.11, 227.14 3.23, 231.67 4.56" stroke="#343a40" stroke-width="1" fill="none"></path></g></g><g stroke-linecap="round"><g transform="translate(1006.9308943952481 504.16755797371025) rotate(0 -112.19251446403564 -2.8831529062241543)"><path d="M-0.1 -0.09 C-37.16 -1.08, -186.22 -4.92, -223.27 -5.68 M-1.62 -1.18 C-38.76 -2.07, -187.42 -4.26, -224.28 -4.59" stroke="#343a40" stroke-width="1" fill="none"></path></g><g transform="translate(1006.9308943952481 504.16755797371025) rotate(0 -112.19251446403564 -2.8831529062241543)"><path d="M-196.12 -14.71 C-203.71 -11.07, -208.25 -9.45, -222.89 -4.03 M-196.51 -14.59 C-205.35 -11.09, -215.24 -6.75, -224.81 -4.57" stroke="#343a40" stroke-width="1" fill="none"></path></g><g transform="translate(1006.9308943952481 504.16755797371025) rotate(0 -112.19251446403564 -2.8831529062241543)"><path d="M-196.37 5.81 C-203.96 4.86, -208.44 1.9, -222.89 -4.03 M-196.77 5.93 C-205.52 2.41, -215.33 -0.26, -224.81 -4.57" stroke="#343a40" stroke-width="1" fill="none"></path></g></g></svg>