<svg xmlns="http://www.w3.org/2000/svg" height="512pt" version="1.1" viewBox="0 -20 512 512" width="512pt">
<g id="surface1">
<path d="M 186 298.5 L 116.5 298.5 C 85.847656 298.5 61 323.347656 61 354 L 61 462 L 170 462 L 170 338.054688 L 218.550781 265.949219 Z M 186 298.5 " style=" stroke:none;fill-rule:nonzero;fill:rgb(100%,36.470588%,36.470588%);fill-opacity:1;" />
<path d="M 446.5 274 L 377 274 L 320.179688 217.179688 C 323.398438 225.464844 327.535156 233.40625 332.550781 240.855469 L 398 338.054688 L 398 462 L 454 462 L 454 448.9375 L 459.75 462 L 502 462 L 502 329.5 C 502 298.847656 477.152344 274 446.5 274 Z M 446.5 274 " style=" stroke:none;fill-rule:nonzero;fill:rgb(62.745098%,89.803922%,34.117647%);fill-opacity:1;" />
<path d="M 129.75 181.144531 C 114.957031 187.316406 104.554688 201.914062 104.554688 218.945312 L 104.554688 233.058594 C 104.554688 250.085938 114.957031 264.6875 129.75 270.855469 C 144.542969 264.6875 154.945312 250.089844 154.945312 233.058594 L 154.945312 218.945312 C 154.945312 201.914062 144.542969 187.316406 129.75 181.144531 Z M 129.75 181.144531 " style=" stroke:none;fill-rule:nonzero;fill:rgb(98.823529%,77.647059%,61.568627%);fill-opacity:1;" />
<path d="M 413.75 181.144531 C 398.957031 187.316406 388.558594 201.914062 388.558594 218.945312 L 388.558594 233.058594 C 388.558594 250.085938 398.957031 264.6875 413.75 270.855469 C 428.542969 264.6875 438.941406 250.089844 438.941406 233.058594 L 438.941406 218.945312 C 438.941406 201.914062 428.542969 187.316406 413.75 181.144531 Z M 413.75 181.144531 " style=" stroke:none;fill-rule:nonzero;fill:rgb(98.823529%,77.647059%,61.568627%);fill-opacity:1;" />
<path d="M 255.988281 79.492188 C 261.507812 79.492188 265.988281 75.015625 265.988281 69.492188 L 265.988281 10 C 265.988281 4.476562 261.507812 0 255.988281 0 C 250.464844 0 245.988281 4.476562 245.988281 10 L 245.988281 69.492188 C 245.988281 75.015625 250.464844 79.492188 255.988281 79.492188 Z M 255.988281 79.492188 " style=" stroke:none;fill-rule:nonzero;fill:rgb(0%,0%,0%);fill-opacity:1;" />
<path d="M 185.1875 99.527344 C 187.140625 101.480469 189.699219 102.453125 192.257812 102.453125 C 194.816406 102.453125 197.378906 101.476562 199.328125 99.523438 C 203.234375 95.617188 203.230469 89.285156 199.324219 85.382812 L 175.398438 61.476562 C 171.488281 57.570312 165.160156 57.574219 161.253906 61.480469 C 157.351562 65.390625 157.355469 71.71875 161.261719 75.625 Z M 185.1875 99.527344 " style=" stroke:none;fill-rule:nonzero;fill:rgb(0%,0%,0%);fill-opacity:1;" />
<path d="M 318.234375 104.03125 C 320.792969 104.03125 323.355469 103.054688 325.308594 101.097656 L 350.742188 75.640625 C 354.648438 71.734375 354.644531 65.402344 350.738281 61.5 C 346.832031 57.59375 340.5 57.597656 336.59375 61.503906 L 311.15625 86.960938 C 307.253906 90.867188 307.257812 97.199219 311.164062 101.105469 C 313.117188 103.054688 315.675781 104.03125 318.234375 104.03125 Z M 318.234375 104.03125 " style=" stroke:none;fill-rule:nonzero;fill:rgb(0%,0%,0%);fill-opacity:1;" />
<path d="M 446.5 264 L 438.429688 264 C 445.015625 255.414062 448.941406 244.6875 448.941406 233.058594 L 448.941406 218.945312 C 448.941406 190.851562 426.089844 168 398 168 C 369.910156 168 347.058594 190.851562 347.058594 218.941406 L 347.058594 229.914062 L 271.824219 154.683594 C 267.652344 150.507812 261.511719 149.167969 256 151.15625 C 250.492188 149.167969 244.351562 150.507812 240.175781 154.683594 L 164.945312 229.914062 L 164.945312 218.941406 C 164.941406 190.851562 142.089844 168 114 168 C 85.910156 168 63.058594 190.851562 63.058594 218.941406 L 63.058594 233.054688 C 63.058594 244.6875 66.984375 255.414062 73.570312 264 L 65.5 264 C 29.382812 264 0 293.382812 0 329.5 L 0 462 C 0 467.523438 4.476562 472 10 472 L 52.25 472 C 53.25 472 54.214844 471.847656 55.125 471.574219 C 56.035156 471.847656 57 472 58 472 L 170 472 C 175.523438 472 180 467.523438 180 462 L 180 428 C 180 422.476562 175.523438 418 170 418 C 164.476562 418 160 422.476562 160 428 L 160 452 L 68 452 L 68 338.054688 C 68 332.53125 63.523438 328.054688 58 328.054688 C 52.476562 328.054688 48 332.53125 48 338.054688 L 48 452 L 20 452 L 20 329.5 C 20 304.410156 40.410156 284 65.5 284 L 135 284 C 137.753906 284 140.242188 282.886719 142.050781 281.089844 C 142.058594 281.082031 142.066406 281.078125 142.070312 281.070312 L 245.941406 177.203125 C 245.261719 197.96875 238.800781 217.972656 227.152344 235.269531 L 161.707031 332.46875 C 160.59375 334.117188 160 336.0625 160 338.054688 L 160 349 C 160 354.523438 164.480469 359 170 359 C 175.523438 359 180 354.523438 180 349 L 180 341.105469 L 243.742188 246.4375 C 248.613281 239.207031 252.699219 231.5625 256 223.632812 C 259.304688 231.5625 263.386719 239.207031 268.257812 246.4375 L 332 341.105469 L 332 462 C 332 467.523438 336.476562 472 342 472 L 454 472 C 455 472 455.964844 471.847656 456.875 471.574219 C 457.785156 471.847656 458.75 472 459.75 472 L 502 472 C 507.523438 472 512 467.523438 512 462 L 512 329.5 C 512 293.382812 482.617188 264 446.5 264 Z M 83.058594 233.058594 L 83.058594 218.945312 C 83.058594 201.882812 96.9375 188 114 188 C 131.0625 188 144.941406 201.882812 144.941406 218.941406 L 144.941406 233.054688 C 144.941406 250.117188 131.0625 264 114 264 C 96.9375 264 83.058594 250.117188 83.058594 233.058594 Z M 367.058594 218.941406 C 367.058594 201.882812 380.9375 188 398 188 C 415.0625 188 428.941406 201.882812 428.941406 218.941406 L 428.941406 233.054688 C 428.941406 250.117188 415.0625 264 398 264 C 380.9375 264 367.058594 250.117188 367.058594 233.058594 Z M 492 452 L 464 452 L 464 378 C 464 372.476562 459.523438 368 454 368 C 448.476562 368 444 372.476562 444 378 L 444 452 L 352 452 L 352 338.054688 C 352 336.0625 351.40625 334.117188 350.296875 332.46875 L 284.847656 235.269531 C 273.199219 217.972656 266.742188 197.972656 266.058594 177.203125 L 369.929688 281.070312 C 370.0625 281.203125 370.183594 281.316406 370.304688 281.414062 C 372.078125 283.015625 374.421875 284.003906 377 284.003906 L 446.5 284.003906 C 471.589844 284.003906 492 304.414062 492 329.503906 Z M 492 452 " style=" stroke:none;fill-rule:nonzero;fill:rgb(0%,0%,0%);fill-opacity:1;" />
<path d="M 454 328.050781 C 451.371094 328.050781 448.789062 329.121094 446.929688 330.980469 C 445.070312 332.839844 444 335.421875 444 338.050781 C 444 340.679688 445.070312 343.261719 446.929688 345.121094 C 448.789062 346.980469 451.371094 348.050781 454 348.050781 C 456.628906 348.050781 459.210938 346.980469 461.070312 345.121094 C 462.929688 343.261719 464 340.679688 464 338.050781 C 464 335.421875 462.929688 332.851562 461.070312 330.980469 C 459.210938 329.121094 456.628906 328.050781 454 328.050781 Z M 454 328.050781 " style=" stroke:none;fill-rule:nonzero;fill:rgb(0%,0%,0%);fill-opacity:1;" />
<path d="M 170 381 C 167.371094 381 164.789062 382.070312 162.929688 383.929688 C 161.070312 385.789062 160 388.371094 160 391 C 160 393.628906 161.070312 396.210938 162.929688 398.070312 C 164.789062 399.929688 167.371094 401 170 401 C 172.628906 401 175.210938 399.929688 177.070312 398.070312 C 178.929688 396.210938 180 393.628906 180 391 C 180 388.371094 178.929688 385.789062 177.070312 383.929688 C 175.210938 382.070312 172.628906 381 170 381 Z M 170 381 " style=" stroke:none;fill-rule:nonzero;fill:rgb(0%,0%,0%);fill-opacity:1;" />
</g>
</svg>