<svg id="Capa_1" enable-background="new 0 0 510.967 510.967" height="512" viewBox="0 0 510.967 510.967" width="512" xmlns="http://www.w3.org/2000/svg"><g><g><path d="m379.523 280.873v6.91l2.079 30.3-25.317 24.737s-120.217-136.308-118.358-136.618 49.574-14.253 49.574-14.253z" fill="#ffdfcf"/><g><path d="m366.433 319.053-92.257-92.257-63.181-65.08c-4.325-4.325-9.515-7.686-15.23-9.864l-21.487-8.186-14.149-14.149-22.142-28.817-98.673 98.93 30.438 32.236 30.274 30.274v19.56c0 7.081 2.813 13.873 7.82 18.88l35.245 33.222 91.021 69.932 23.82 23.82c7.49 7.49 19.63 7.49 27.12 0 3.74-3.75 5.62-8.65 5.62-13.57 0-4.9-1.88-9.82-5.62-13.56 3.74 3.74 8.66 5.62 13.56 5.62 4.92 0 9.82-1.88 13.57-5.62 7.49-7.49 7.49-19.63 0-27.12 3.75 3.74 8.65 5.62 13.56 5.62s9.81-1.88 13.56-5.62c7.49-7.49 7.49-19.64 0-27.13 7.49 7.49 19.64 7.49 27.13 0 3.74-3.75 5.62-8.65 5.62-13.56.001-4.911-1.879-9.811-5.619-13.561z" fill="#ffeee6"/><g id="XMLID_442_"><g fill="#ffdfcf"><path d="m234.893 376.273c7.37 7.37 7.37 19.31 0 26.68l-20.15 20.15c-7.37 7.36-19.31 7.36-26.68 0l-.45-.45c-7.36-7.37-7.36-19.31 0-26.68l17.89-17.89 2.27-2.26c7.36-7.37 19.3-7.37 26.67 0z"/><path d="m205.503 351.413c7.37 7.36 7.37 19.31 0 26.67l-17.89 17.89c-3.68 3.69-8.51 5.53-13.34 5.53-4.82 0-9.65-1.84-13.33-5.53-7.37-7.36-7.37-19.31 0-26.67l17.89-17.89c3.68-3.69 8.51-5.53 13.34-5.53 4.82 0 9.65 1.84 13.33 5.53z"/><path d="m187.233 316.343c7.36 7.36 7.36 19.3 0 26.67l-8.4 8.4-17.89 17.89c-3.69 3.68-8.51 5.52-13.34 5.52s-9.65-1.84-13.34-5.52c-7.36-7.37-7.36-19.31 0-26.68l16.21-16.21 10.08-10.07c3.68-3.68 8.51-5.53 13.34-5.53s9.66 1.85 13.34 5.53z"/><path d="m150.473 299.743c7.37 7.37 7.37 19.31 0 26.67l-16.21 16.21c-3.68 3.68-8.51 5.53-13.33 5.53-4.83 0-9.66-1.85-13.34-5.53-7.37-7.36-7.37-19.3 0-26.67l16.21-16.21c3.69-3.68 8.51-5.53 13.34-5.53s9.65 1.85 13.33 5.53z"/></g></g><g id="XMLID_438_"><g fill="#ffcebf"><path d="m200.305 408.666 17.89-17.89 2.27-2.26c5.154-5.161 12.569-6.681 19.073-4.614-.885-2.784-2.437-5.419-4.646-7.628l-.45-.45c-7.37-7.37-19.31-7.37-26.67 0l-2.27 2.26-17.89 17.89c-7.36 7.37-7.36 19.31 0 26.68l.45.45c2.21 2.207 4.84 3.755 7.626 4.638-2.062-6.504-.536-13.916 4.617-19.076z"/><path d="m173.635 381.996 17.89-17.89c3.68-3.69 8.51-5.53 13.34-5.53 1.813 0 3.627.261 5.381.782-.865-2.909-2.446-5.65-4.743-7.945-3.68-3.69-8.51-5.53-13.33-5.53-4.83 0-9.66 1.84-13.34 5.53l-17.89 17.89c-7.37 7.36-7.37 19.31 0 26.67 2.296 2.302 5.04 3.883 7.949 4.748-1.909-6.421-.329-13.66 4.743-18.725z"/><path d="m146.955 355.316 16.21-16.21 10.08-10.07c3.68-3.68 8.51-5.53 13.34-5.53 1.816 0 3.631.262 5.386.784-.864-2.909-2.442-5.651-4.738-7.946-3.68-3.68-8.51-5.53-13.34-5.53s-9.66 1.85-13.34 5.53l-10.08 10.07-16.21 16.21c-7.36 7.37-7.36 19.31 0 26.68 2.302 2.296 5.044 3.875 7.954 4.738-1.905-6.421-.326-13.655 4.738-18.726z"/><path d="m120.285 328.646 16.21-16.21c3.69-3.68 8.51-5.53 13.34-5.53 1.815 0 3.628.262 5.379.783-.865-2.908-2.445-5.648-4.742-7.945-3.68-3.68-8.5-5.53-13.33-5.53s-9.65 1.85-13.34 5.53l-16.21 16.21c-7.37 7.37-7.37 19.31 0 26.67 2.295 2.295 5.037 3.877 7.947 4.744-1.905-6.418-.324-13.652 4.746-18.722z"/></g></g><g id="XMLID_440_"><g><path d="m383.243 136.703 88.84 89.77-12.42 13.55-78.06 78.06-110.33-102.5h-36.59l-23.66 19.45c-8.94 7.34-21.99 6.71-30.16-1.47-4.39-4.39-6.59-10.14-6.59-15.89s2.2-11.5 6.59-15.89l28.52-28.52c2.47-2.47 5.81-3.86 9.3-3.86h75.31c2.53 0 5.02.65 7.24 1.89l28.1 15.67c1.31.73 2.93.51 4-.53l27.98-27.32z" fill="#ffdfcf"/></g></g><g><path d="m197.139 225.698c0-5.75 2.2-11.5 6.59-15.89l19.889-19.889c7.998-7.998 18.845-12.491 30.156-12.491h58.46l-11.001-6.135c-2.22-1.24-4.71-1.89-7.24-1.89h-75.31c-3.483 0-6.824 1.384-9.287 3.847l-28.533 28.533c-4.39 4.39-6.59 10.14-6.59 15.89s2.2 11.5 6.59 15.89c5.673 5.68 13.715 7.716 21.085 5.975-3.181-4.056-4.809-8.946-4.809-13.84z" fill="#ffcebf"/></g><path d="m498.554 220.491-23.194 23.194c-3.272 3.272-8.558 3.332-11.904.136l-99.362-94.913c-3.456-3.301-3.519-8.8-.139-12.18l50.685-50.685c4.17-4.17 11.157-3.27 14.135 1.821l71.184 121.719c2.067 3.532 1.489 8.014-1.405 10.908z" fill="#fd8087"/><path d="m11.755 179.816c-2.342 2.29-2.363 6.052-.047 8.369l34.387 34.387c5.207 5.207 13.649 5.207 18.856 0l95.825-95.825c5.207-5.207 5.207-13.649 0-18.856l-33.205-33.204c-2.28-2.28-5.971-2.301-8.276-.046z" fill="#99e6fc"/></g></g><g><path d="m414.47 274.61-41.024 41.025c-.536-.649-1.104-1.28-1.711-1.887l-52.982-52.982c-2.93-2.929-7.678-2.929-10.607 0s-2.929 7.678 0 10.606l52.982 52.982c4.555 4.554 4.555 11.965.001 16.519-4.557 4.554-11.967 4.555-16.52 0l-29.441-29.441c-2.93-2.929-7.678-2.929-10.607 0s-2.929 7.678 0 10.606l29.441 29.441c.001.001.003.002.004.004 2.204 2.206 3.418 5.137 3.418 8.256 0 3.12-1.215 6.053-3.422 8.26-2.206 2.206-5.139 3.421-8.259 3.421s-6.053-1.215-8.259-3.421l-29.441-29.441c-2.93-2.929-7.678-2.929-10.607 0s-2.929 7.678 0 10.606l29.441 29.441c4.555 4.554 4.555 11.965.001 16.519-2.207 2.207-5.141 3.422-8.261 3.422s-6.053-1.215-8.259-3.421l-29.441-29.441c-2.93-2.929-7.678-2.929-10.607 0s-2.929 7.678 0 10.606l29.441 29.441c4.555 4.554 4.555 11.965 0 16.519-2.206 2.206-5.139 3.421-8.259 3.421s-6.053-1.215-8.259-3.421l-19.073-19.073c6.077-10.127 4.759-23.486-3.962-32.206l-.452-.452c-5.81-5.81-13.681-8.333-21.283-7.574-.427-6.362-3.102-12.286-7.654-16.838-3.521-3.521-7.799-5.835-12.315-6.943 1.151-2.987 1.76-6.19 1.76-9.487 0-7.042-2.742-13.662-7.721-18.641s-11.599-7.721-18.641-7.721c-4.013 0-7.887.893-11.4 2.581-1.182-4.198-3.415-8.159-6.712-11.456-10.277-10.278-27.002-10.277-37.281 0l-3.093 3.093-2.255-2.255c-3.627-3.627-5.624-8.448-5.624-13.577v-19.56c0-1.989-.79-3.897-2.196-5.303l-32.018-32.018 9.003-9.004c2.929-2.929 2.929-7.678-.001-10.606-2.928-2.93-7.677-2.929-10.606 0l-12.06 12.061c-2.274 2.274-5.976 2.275-8.25 0l-38.595-38.596c-2.929-2.929-7.677-2.929-10.607 0-2.929 2.929-2.929 7.677 0 10.606l38.596 38.596c4.062 4.061 9.396 6.091 14.73 6.091 1.708 0 3.411-.232 5.077-.648l31.927 31.926v16.454c0 9.135 3.558 17.723 10.017 24.183l2.256 2.256-2.51 2.51c-4.979 4.979-7.722 11.599-7.722 18.641s2.742 13.662 7.721 18.64c5.14 5.139 11.891 7.709 18.642 7.709.107 0 .214-.006.321-.008-.001.111-.008.221-.008.333 0 7.042 2.742 13.662 7.721 18.64 4.979 4.979 11.6 7.721 18.641 7.721.111 0 .222-.007.333-.008-.083 6.857 2.48 13.741 7.7 18.961 5.14 5.139 11.891 7.709 18.642 7.709.111 0 .222-.007.332-.008-.086 6.861 2.477 13.75 7.701 18.974l.452.452c4.979 4.979 11.599 7.721 18.64 7.721 7.042 0 13.662-2.742 18.641-7.721l14.065-14.064 18.516 18.516c5.039 5.04 11.739 7.815 18.866 7.815s13.827-2.775 18.866-7.815c5.317-5.317 7.909-12.338 7.791-19.322.156.003.311.011.468.011 7.127 0 13.827-2.775 18.867-7.815 5.32-5.32 7.912-12.347 7.791-19.334.156.003.312.011.468.011 6.831-.001 13.665-2.602 18.865-7.802 5.04-5.039 7.815-11.739 7.815-18.866 0-.157-.009-.312-.011-.468.152.003.304.011.456.011 6.832 0 13.665-2.601 18.867-7.802 5.656-5.656 8.229-13.24 7.735-20.655l45.608-45.608c2.929-2.929 2.929-7.678 0-10.606-2.932-2.931-7.68-2.931-10.61-.002zm-301.575 62.713c-2.146-2.146-3.327-4.999-3.327-8.033 0-3.035 1.182-5.888 3.328-8.034l16.209-16.209c2.216-2.215 5.125-3.323 8.035-3.323 2.909 0 5.818 1.107 8.033 3.322 4.43 4.431 4.43 11.639 0 16.068l-16.21 16.21c-4.43 4.43-11.637 4.429-16.068-.001zm34.709 30.003c-3.034 0-5.888-1.182-8.034-3.328s-3.327-4.999-3.327-8.033 1.182-5.888 3.328-8.034l16.21-16.21 10.078-10.078c2.146-2.146 4.998-3.328 8.033-3.328s5.888 1.182 8.033 3.328c2.146 2.146 3.328 5 3.328 8.034s-1.182 5.888-3.328 8.034l-26.288 26.288c-2.146 2.145-4.998 3.327-8.033 3.327zm18.64 23.346c-4.43-4.43-4.43-11.638 0-16.068l17.891-17.892c2.215-2.214 5.124-3.321 8.034-3.321 2.909 0 5.819 1.108 8.033 3.322 2.146 2.146 3.328 5 3.328 8.034 0 3.033-1.18 5.884-3.324 8.029l-17.895 17.895c-4.429 4.431-11.637 4.431-16.067.001zm43.193 27.126c-2.146 2.146-4.998 3.328-8.033 3.328-3.034 0-5.888-1.182-8.033-3.328l-.451-.451c-4.431-4.43-4.431-11.638 0-16.068l17.89-17.89c.006-.006.011-.012.016-.017l2.245-2.246c2.216-2.215 5.125-3.322 8.035-3.322 2.909 0 5.819 1.108 8.033 3.322l.451.451c4.431 4.43 4.431 11.638 0 16.068z"/><path d="m508.771 210.276c-2.929-2.929-7.677-2.93-10.607 0l-28.106 28.106c-.387.387-1.024.393-1.419.016l-99.362-94.913c-.205-.196-.311-.439-.314-.723s.098-.53.298-.73l58.933-58.932c2.929-2.929 2.929-7.678 0-10.606-2.929-2.929-7.677-2.929-10.607 0l-58.933 58.932c-3.074 3.075-4.739 7.162-4.689 11.509.041 3.504 1.209 6.803 3.3 9.528l-26.97 26.449-25.411-14.172c-3.321-1.853-7.086-2.832-10.889-2.832h-72.2l-5.495-5.494c-5.106-5.106-11.116-8.998-17.863-11.569l-19.987-7.615-9.236-9.236c4.776-7.999 3.748-18.525-3.133-25.405l-30.095-30.095c-2.929-2.929-7.677-2.929-10.607 0-2.929 2.929-2.929 7.678 0 10.606l30.095 30.095c2.274 2.274 2.274 5.975 0 8.25l-61.163 61.163c-2.929 2.929-2.929 7.678 0 10.606 1.465 1.464 3.385 2.197 5.304 2.197s3.839-.732 5.304-2.197l54.151-54.151 9.907 9.907c.748.748 1.646 1.329 2.634 1.706l21.486 8.186c4.636 1.767 8.774 4.425 12.314 7.891-.455.383-.902.779-1.328 1.205l-28.524 28.526c-5.661 5.66-8.778 13.187-8.778 21.192s3.117 15.531 8.777 21.192c5.849 5.849 13.5 8.816 21.185 8.816 6.716 0 13.457-2.267 19.04-6.857l21.586-17.746h22.485l25.692 25.692c1.465 1.464 3.385 2.197 5.304 2.197s3.839-.732 5.304-2.197c2.929-2.929 2.929-7.678 0-10.606l-18.561-18.561c.743-1.164 1.179-2.542 1.179-4.025 0-4.142-3.357-7.5-7.5-7.5h-36.591c-1.737 0-3.421.603-4.763 1.707l-23.661 19.452c-5.983 4.917-14.618 4.496-20.092-.978-2.828-2.828-4.385-6.587-4.385-10.585s1.557-7.758 4.385-10.585l28.525-28.526c1.067-1.068 2.487-1.656 3.997-1.656h75.307c1.251 0 2.489.322 3.582.932l28.104 15.674c4.172 2.329 9.477 1.624 12.907-1.728l29.377-28.811 80.881 77.259-11.774 11.774c-2.929 2.929-2.929 7.678.001 10.606 1.464 1.465 3.384 2.197 5.303 2.197s3.839-.732 5.304-2.197l12.113-12.113c2.816 2.087 6.177 3.14 9.544 3.14 4.116 0 8.23-1.555 11.328-4.654l28.107-28.105c2.928-2.931 2.928-7.679 0-10.608z"/></g></g></svg>