<svg id="Capa_1" enable-background="new 0 0 512 512" height="512" viewBox="0 0 512 512" width="512" xmlns="http://www.w3.org/2000/svg"><g><path d="m347.286 203.876c-221.19-75.589-72.046-166.142 3.02-201.853 1.026-.487.677-2.023-.459-2.023h-53.55c-8.469 0-16.838 1.96-24.582 5.745-85.039 41.566-256.502 142.695-117.98 227.51 158.851 97.261-11.45 224.267-100.575 278.745h349.478c46.736-66.708 143.573-240.144-55.352-308.124z" fill="#665e68"/><path d="m53.16 512h76.776c91.568-63.118 231.714-188.068 82.869-285.189-124.238-81.064.874-176.113 89.349-226.811h-5.857c-8.469 0-16.838 1.96-24.582 5.745-85.039 41.566-256.502 142.695-117.98 227.51 158.851 97.261-11.45 224.267-100.575 278.745z" fill="#554e56"/><g><path d="m217.804 71.339c-2.519 0-4.988-1.229-6.473-3.493-2.342-3.571-1.346-8.364 2.226-10.706 3.419-2.242 5.57-3.471 5.659-3.522 3.71-2.115 8.433-.82 10.546 2.891 2.113 3.709.82 8.428-2.887 10.543-.051.029-1.892 1.087-4.838 3.019-1.307.858-2.778 1.267-4.233 1.268z" fill="#dfebfa"/></g><g fill="#dfebfa"><path d="m291.42 441.935c-1.882 0-3.768-.683-5.257-2.064-3.131-2.904-3.314-7.797-.409-10.927 2.814-3.033 5.559-6.119 8.16-9.173 2.77-3.251 7.65-3.642 10.9-.872 3.251 2.769 3.642 7.649.872 10.9-2.742 3.219-5.634 6.47-8.596 9.663-1.523 1.642-3.594 2.473-5.67 2.473z"/><path d="m324.191 398.39c-1.307 0-2.632-.332-3.846-1.03-3.703-2.128-4.978-6.855-2.85-10.557 2.045-3.559 3.931-7.135 5.603-10.63 1.843-3.852 6.46-5.481 10.312-3.638 3.853 1.843 5.481 6.46 3.638 10.312-1.84 3.845-3.907 7.77-6.147 11.663-1.43 2.487-4.033 3.88-6.71 3.88z"/><path d="m341.594 347.113c-.205 0-.412-.008-.62-.025-4.257-.338-7.435-4.062-7.097-8.319.166-2.085.249-4.179.249-6.225.001-1.739-.06-3.49-.18-5.204-.299-4.26 2.913-7.955 7.172-8.254 4.25-.302 7.955 2.912 8.254 7.172.145 2.074.219 4.189.218 6.288 0 2.45-.1 4.956-.298 7.445-.32 4.049-3.705 7.122-7.698 7.122z"/><path d="m328.086 295.326c-2.508 0-4.969-1.219-6.457-3.468-2.069-3.129-4.429-6.244-7.016-9.259-2.78-3.241-2.407-8.122.834-10.903s8.122-2.408 10.903.834c3.004 3.501 5.755 7.134 8.178 10.797 2.355 3.562 1.378 8.359-2.184 10.715-1.313.869-2.794 1.284-4.258 1.284z"/><path d="m288.565 258.262c-1.436 0-2.888-.399-4.183-1.235-3.293-2.124-6.791-4.234-10.396-6.272-3.718-2.101-5.027-6.819-2.926-10.536 2.101-3.718 6.819-5.027 10.536-2.926 3.865 2.185 7.622 4.452 11.166 6.737 3.589 2.315 4.622 7.1 2.308 10.689-1.478 2.293-3.966 3.543-6.505 3.543z"/><path d="m240.155 233.18c-1.176 0-2.369-.269-3.49-.837-3.918-1.986-7.749-4.019-11.385-6.041-3.732-2.076-5.075-6.784-2.999-10.516 2.076-3.733 6.783-5.077 10.516-2.999 3.464 1.927 7.118 3.865 10.86 5.762 3.809 1.931 5.332 6.584 3.401 10.393-1.362 2.688-4.082 4.238-6.903 4.238z"/><path d="m194.337 203.784c-1.774 0-3.556-.607-5.012-1.847-3.501-2.984-6.776-6.045-9.733-9.097-2.972-3.067-2.894-7.962.174-10.933 3.068-2.972 7.962-2.893 10.933.174 2.616 2.7 5.529 5.422 8.657 8.088 3.25 2.77 3.64 7.65.869 10.9-1.529 1.792-3.702 2.715-5.888 2.715z"/><path d="m164.402 159.356c-3.578 0-6.79-2.497-7.558-6.138-.88-4.172-1.326-8.433-1.326-12.664-.001-.547.007-1.099.022-1.651.117-4.269 3.684-7.617 7.941-7.518 4.269.117 7.635 3.672 7.518 7.941-.011.406-.017.812-.016 1.22 0 3.168.334 6.355.993 9.48.881 4.178-1.791 8.28-5.97 9.161-.539.115-1.076.169-1.604.169z"/><path d="m177.873 108.162c-1.572 0-3.158-.478-4.528-1.47-3.459-2.504-4.233-7.339-1.728-10.797 2.524-3.486 5.372-6.991 8.465-10.417 2.86-3.169 7.749-3.422 10.921-.559 3.17 2.861 3.42 7.75.559 10.921-2.722 3.016-5.218 6.086-7.419 9.125-1.512 2.088-3.874 3.197-6.27 3.197z"/></g><g><path d="m256.006 474.787c-2.336 0-4.644-1.054-6.165-3.059-2.581-3.402-1.916-8.252 1.486-10.834.014-.011 1.714-1.305 4.569-3.666 3.291-2.722 8.166-2.26 10.886 1.03 2.722 3.291 2.26 8.165-1.03 10.886-3.133 2.592-4.999 4.01-5.077 4.069-1.398 1.061-3.04 1.574-4.669 1.574z" fill="#dfebfa"/></g><path d="m364.982 185.337c-210.789-65.146-89.169-139.33-11.125-177.542 3.647-1.785 2.486-7.795-1.503-7.795h-2.9c-73.415 34.202-232.815 126.815-7.318 203.876 198.923 67.98 102.087 241.416 55.351 308.124h39.609c9.916 0 19.026-6.013 23.71-15.659 44.904-92.457 86.811-254.559-95.824-311.004z" fill="#ffd301"/><g><g><path d="m155.795 233.255c-102.413-62.706-37.443-134.33 38.828-184.208-85.326 47.849-183.183 126.492-68.476 196.724 134.351 82.261-6.581 185.797-109.257 248.736-7.628 4.677-4.608 17.493 4.119 17.493h34.211c89.126-54.478 259.427-181.484 100.575-278.745z" fill="#ffc20c"/></g></g></g></svg>