<?xml version="1.0" encoding="UTF-8" standalone="no"?>
<!-- Generator: Adobe Illustrator 27.0.0, SVG Export Plug-In . SVG Version: 6.00 Build 0)  -->

<svg
   version="1.1"
   id="Layer_1"
   x="0px"
   y="0px"
   viewBox="0 0 220.3 240"
   xml:space="preserve"
   sodipodi:docname="scnmeetup2-vectorized.svg"
   width="220.3"
   height="240"
   inkscape:version="1.2.1 (9c6d41e4, 2022-07-14)"
   xmlns:inkscape="http://www.inkscape.org/namespaces/inkscape"
   xmlns:sodipodi="http://sodipodi.sourceforge.net/DTD/sodipodi-0.dtd"
   xmlns="http://www.w3.org/2000/svg"
   xmlns:svg="http://www.w3.org/2000/svg"><defs
   id="defs243" /><sodipodi:namedview
   id="namedview241"
   pagecolor="#ffffff"
   bordercolor="#000000"
   borderopacity="0.25"
   inkscape:showpageshadow="2"
   inkscape:pageopacity="0.0"
   inkscape:pagecheckerboard="0"
   inkscape:deskcolor="#d1d1d1"
   showgrid="false"
   inkscape:zoom="3.2286962"
   inkscape:cx="111.03553"
   inkscape:cy="105.92511"
   inkscape:window-width="1468"
   inkscape:window-height="794"
   inkscape:window-x="976"
   inkscape:window-y="194"
   inkscape:window-maximized="0"
   inkscape:current-layer="Layer_1" />
<style
   type="text/css"
   id="style132">
	.st0{fill:#F1EFF0;}
	.st1{fill:#DCDADF;}
	.st2{fill:#FDFEFE;}
	.st3{fill:none;stroke:#000000;stroke-miterlimit:10;}
	.st4{fill:#FFD489;}
	.st5{fill:none;}
	.st6{fill:#FBAF45;}
	.st7{fill:#383838;}
	.st8{font-family:'AndaleMono';}
	.st9{font-size:22.5832px;}
</style>
<path
   class="st0"
   d="M 159.6,3.9 H 61.8 c -2.5,0 -4.8,1.3 -6,3.5 L 6.9,92.1 c -1.2,2.1 -1.2,4.8 0,6.9 l 48.9,84.7 c 1.2,2.1 3.5,3.5 6,3.5 h 97.8 c 2.5,0 4.8,-1.3 6,-3.5 L 214.5,99 c 1.2,-2.1 1.2,-4.8 0,-6.9 L 165.6,7.4 c -1.2,-2.2 -3.5,-3.5 -6,-3.5 z"
   id="path134"
   style="stroke:none;stroke-opacity:0.10880829;fill:#f1eff0;fill-opacity:1" />
<g
   id="g232"
   transform="translate(-105.9,-118.4)">
	<path
   class="st1"
   d="m 224.8,205.7 c 0,0 10,23.9 42.3,22.8 32.3,-1.1 28.3,-25.5 28.3,-26.8 0.2,-14.3 -30.9,-15.4 -30.9,-15.4 z"
   id="path136" />
	<path
   class="st1"
   d="m 203.7,206.4 c 0,0 -10,23.9 -42.3,22.8 -32.3,-1 -28.3,-25.5 -28.3,-26.8 C 132.9,188.1 164,187 164,187 Z"
   id="path138" />
	<path
   class="st0"
   d="m 232.5,190 c 0,0 63.1,-35.8 75,-17.5 9.3,11.6 -22,48.4 -34.4,48.4 -46.2,2.5 -43.7,-16.2 -43.7,-16.2 z"
   id="path140" />
	<path
   class="st2"
   d="m 197.1,188.5 c 0,0 -63.1,-35.8 -75,-17.5 -9.3,11.6 22,48.4 34.4,48.4 46.2,2.5 43.7,-16.2 43.7,-16.2 z"
   id="path142" />
	<ellipse
   cx="215.60001"
   cy="174.5"
   rx="22"
   ry="18.200001"
   id="ellipse144" />
	<ellipse
   cx="215.10001"
   cy="197.8"
   rx="22.5"
   ry="19.299999"
   id="ellipse146" />
	<ellipse
   cx="200.2"
   cy="173.3"
   rx="8.6999998"
   ry="12.3"
   id="ellipse148" />
	<ellipse
   cx="231.5"
   cy="173.3"
   rx="8.6999998"
   ry="12.3"
   id="ellipse150" />
	<path
   d="m 205.8,209.1 c 0,0 2.9,6.6 3,9.6 0.1,3 -3,8.9 -3,8.9 h 18.6 c 0,0 -3.1,-7.3 -3.2,-8.9 0,-1.6 3.2,-10.6 3.2,-10.6 z"
   id="path152" />
	<path
   class="st3"
   d="m 212.9,163.9 c 0,0 -0.1,-9.4 -9.9,-12.8 -9.8,-3.4 -27.2,1.7 -27.2,1.7"
   id="path154" />
	<path
   class="st3"
   d="m 217.5,163.9 c 0,0 0.1,-9.4 9.9,-12.8 9.8,-3.4 27.2,1.7 27.2,1.7"
   id="path156" />
	<g
   id="g182">
		<path
   d="m 200.6,284.5 h 29.8 c 2.6,-2.3 5.2,-4.8 7.5,-7.3 h -44.6 c 2.3,2.6 4.8,5 7.3,7.3 z"
   id="path158" />
		<path
   d="m 215.4,296.9 c 0,0 3,-2.3 7.1,-5.6 h -14.2 c 4.1,3.4 7.1,5.6 7.1,5.6 z"
   id="path160" />
		<path
   d="m 184.5,263.3 c 0.2,0.6 0.3,1.1 0.5,1.6 0.6,1.7 1.6,3.6 2.9,5.6 h 55.7 c 1.2,-1.7 2.1,-3.4 2.6,-4.8 0.2,-0.7 0.5,-1.5 0.7,-2.4 z"
   id="path162" />
		<path
   d="m 248.8,249.3 h -66.5 c 0.2,2.5 0.5,5 0.8,7.3 H 248 c 0.4,-2.3 0.6,-4.8 0.8,-7.3 z"
   id="path164" />
		<path
   d="m 249.8,222.8 c 0,0 -1.2,-0.6 -3.6,-1.5 h -61.4 c -2.3,0.9 -3.6,1.5 -3.6,1.5 0,0 0,2.2 0,5.7 h 68.4 c 0.2,-3.5 0.2,-5.7 0.2,-5.7 z"
   id="path166" />
		<path
   d="m 249.6,235.3 h -68.1 c 0.1,2.3 0.2,4.7 0.3,7.3 h 67.4 c 0.2,-2.6 0.3,-5 0.4,-7.3 z"
   id="path168" />
		<path
   class="st4"
   d="m 215.6,216.2 c -14.8,0 -25.5,3.2 -30.7,5.1 h 61.4 c -5.2,-2 -15.9,-5.1 -30.7,-5.1 z"
   id="path170" />
		<path
   class="st4"
   d="m 249.8,228.5 h -68.4 c 0,1.9 0.1,4.2 0.2,6.7 h 68.1 c 0,-2.4 0,-4.7 0.1,-6.7 z"
   id="path172" />
		<path
   class="st4"
   d="m 249.3,242.5 h -67.4 c 0.1,2.2 0.3,4.5 0.5,6.7 h 66.5 c 0.1,-2.2 0.2,-4.4 0.4,-6.7 z"
   id="path174" />
		<path
   class="st4"
   d="m 248.1,256.5 h -64.9 c 0.4,2.5 0.8,4.8 1.3,6.7 h 62.4 c 0.4,-1.8 0.8,-4.1 1.2,-6.7 z"
   id="path176" />
		<path
   class="st4"
   d="m 193.3,277.3 h 44.6 c 2.2,-2.3 4.2,-4.6 5.7,-6.7 h -55.7 c 1.5,2.1 3.3,4.4 5.4,6.7 z"
   id="path178" />
		<path
   class="st4"
   d="m 208.3,291.3 h 14.2 c 2.4,-1.9 5.1,-4.3 7.9,-6.7 h -29.8 c 2.7,2.4 5.4,4.8 7.7,6.7 z"
   id="path180" />
	</g>
	<path
   class="st5"
   d="m 215.7,114.4 v 42 c 5.7,0 10.9,1.8 14.8,4.8 0.3,-0.1 0.7,-0.1 1,-0.1 4.8,0 8.7,5.5 8.7,12.3 0,6 -3,10.9 -7,12 -0.2,0.2 -0.3,0.3 -0.5,0.5 0.8,0.9 1.5,1.8 2.2,2.8 11.6,-6.3 62.1,-32.4 72.6,-16.2 5.2,6.4 -2.2,20.7 -11.9,32.1 0.1,6.8 -2.3,23 -28.5,23.9 -20.6,0.7 -32.1,-8.8 -37.8,-15.7 -2.2,1.6 -4.8,2.8 -7.6,3.5 -0.3,1.1 -0.5,2.1 -0.5,2.5 0,0.5 0.3,1.5 0.7,2.6 11.5,0.7 19.9,3.2 24.3,4.9 2.3,0.9 3.6,1.5 3.6,1.5 0,0 0,2.2 -0.1,5.7 0,1.9 -0.1,4.2 -0.2,6.7 -0.1,2.3 -0.2,4.7 -0.3,7.3 -0.1,2.2 -0.3,4.5 -0.5,6.7 -0.2,2.5 -0.5,5 -0.8,7.3 -0.3,2.5 -0.7,4.8 -1.2,6.7 -0.2,0.9 -0.4,1.7 -0.7,2.4 -0.5,1.4 -1.4,3.1 -2.6,4.8 -1.5,2.1 -3.5,4.4 -5.7,6.7 -2.3,2.5 -4.9,4.9 -7.5,7.3 -2.8,2.5 -5.5,4.8 -7.9,6.7 -3.3,2.7 -5.9,4.7 -6.8,5.4 v 14.1 H 332.2 V 114.4 Z"
   id="path184" />
	<path
   class="st1"
   d="m 273.1,220.9 c -27.8,1.5 -38,-4.7 -41.7,-9.8 -0.7,0.6 -1.4,1.2 -2.1,1.7 5.7,6.9 17.2,16.4 37.8,15.7 26.2,-0.8 28.5,-17.1 28.5,-23.9 -7.7,9.1 -17,16.3 -22.5,16.3 z"
   id="path186" />
	<path
   class="st2"
   d="m 231.5,211.1 c 3.7,5.2 13.8,11.4 41.7,9.8 5.5,0 14.7,-7.2 22.5,-16.3 9.7,-11.4 17.1,-25.6 11.9,-32.1 -10.5,-16.2 -61,9.9 -72.6,16.2 1.7,2.7 2.7,5.8 2.7,9.1 -0.1,5.2 -2.4,9.8 -6.2,13.3 z"
   id="path188" />
	<path
   d="m 232.8,185.9 c 0.2,-0.2 0.3,-0.3 0.5,-0.5 -0.3,0.1 -0.5,0.1 -0.8,0.2 0.1,0.1 0.2,0.2 0.3,0.3 z"
   id="path190" />
	<path
   d="m 222.8,173.3 c 0,-6.3 3.4,-11.5 7.7,-12.2 -3.9,-3 -9.1,-4.8 -14.8,-4.8 v 22.2 c 3,0.1 5.9,0.7 8.6,1.7 -1,-2 -1.5,-4.3 -1.5,-6.9 z"
   id="path192" />
	<path
   d="m 221.8,216.3 c 2.8,-0.7 5.3,-1.9 7.6,-3.5 0.8,-0.5 1.5,-1.1 2.1,-1.7 3.8,-3.5 6.1,-8.1 6.1,-13.2 0,-3.3 -1,-6.4 -2.7,-9.1 -0.6,-1 -1.3,-1.9 -2.2,-2.8 -0.1,-0.1 -0.2,-0.2 -0.3,-0.3 -0.3,0 -0.6,0.1 -0.9,0.1 -3,0 -5.7,-2.2 -7.3,-5.4 -2.6,-1 -5.5,-1.6 -8.6,-1.7 v 30.1 l 8.7,-0.5 c 0.1,-0.2 -1.6,4.7 -2.5,8 z"
   id="path194" />
	<path
   d="m 222.8,173.3 c 0,2.5 0.5,4.9 1.5,6.9 1.6,3.3 4.2,5.4 7.3,5.4 0.3,0 0.6,0 0.9,-0.1 0.3,0 0.5,-0.1 0.8,-0.2 4,-1.1 7,-6.1 7,-12 0,-6.8 -3.9,-12.3 -8.7,-12.3 -0.4,0 -0.7,0 -1,0.1 -4.4,0.8 -7.8,6 -7.8,12.2 z"
   id="path196" />
	<path
   d="m 221.3,218.8 c 0,-0.4 0.2,-1.4 0.5,-2.5 0.9,-3.2 2.6,-8.1 2.6,-8.1 l -8.7,0.5 v 12.6 c 2.2,0 4.2,0.1 6.2,0.2 -0.3,-1.3 -0.6,-2.2 -0.6,-2.7 z"
   id="path198" />
	<g
   id="g224">
		<path
   d="m 237.9,277.3 h -22.1 v 7.3 h 14.6 c 2.5,-2.4 5.1,-4.9 7.5,-7.3 z"
   id="path200" />
		<path
   d="m 215.7,291.3 v 5.4 c 0.9,-0.7 3.5,-2.7 6.8,-5.4 z"
   id="path202" />
		<path
   d="m 246.2,265.7 c 0.2,-0.7 0.5,-1.5 0.7,-2.4 h -31.2 v 7.3 h 27.8 c 1.3,-1.8 2.2,-3.4 2.7,-4.9 z"
   id="path204" />
		<path
   d="m 248.8,249.3 h -33.1 v 7.3 H 248 c 0.4,-2.3 0.6,-4.8 0.8,-7.3 z"
   id="path206" />
		<path
   d="m 249.8,222.8 c 0,0 -1.2,-0.6 -3.6,-1.5 h -30.6 v 7.3 h 34.1 c 0.1,-3.6 0.1,-5.8 0.1,-5.8 z"
   id="path208" />
		<path
   d="m 249.6,235.3 h -33.9 v 7.3 h 33.6 c 0.1,-2.6 0.2,-5 0.3,-7.3 z"
   id="path210" />
		<path
   class="st6"
   d="m 246.3,221.3 c -4.4,-1.7 -12.8,-4.2 -24.3,-4.9 -2,-0.1 -4.1,-0.2 -6.2,-0.2 v 5.1 z"
   id="path212" />
		<path
   class="st6"
   d="m 249.8,228.5 h -34.1 v 6.7 h 33.9 c 0.1,-2.4 0.1,-4.7 0.2,-6.7 z"
   id="path214" />
		<path
   class="st6"
   d="m 249.3,242.5 h -33.6 v 6.7 h 33.1 c 0.2,-2.2 0.3,-4.4 0.5,-6.7 z"
   id="path216" />
		<path
   class="st6"
   d="m 248.1,256.5 h -32.3 v 6.7 H 247 c 0.3,-1.8 0.7,-4.1 1.1,-6.7 z"
   id="path218" />
		<path
   class="st6"
   d="m 243.6,270.5 h -27.8 v 6.7 h 22.1 c 2.2,-2.2 4.2,-4.5 5.7,-6.7 z"
   id="path220" />
		<path
   class="st6"
   d="m 230.3,284.5 h -14.6 v 6.7 h 6.8 c 2.4,-1.9 5.1,-4.2 7.8,-6.7 z"
   id="path222" />
	</g>
	<ellipse
   transform="matrix(0.1481,-0.989,0.989,0.1481,-1.5455,337.9801)"
   class="st7"
   cx="195.39999"
   cy="169.89999"
   rx="4.6999998"
   ry="2"
   id="ellipse226" />
	<ellipse
   transform="matrix(0.9554,-0.2954,0.2954,0.9554,-39.4464,77.188)"
   class="st7"
   cx="235.7"
   cy="169.10001"
   rx="2"
   ry="4.6999998"
   id="ellipse228" />
	<path
   class="st7"
   d="m 201.8,186.8 c -3.3,-1.4 -4.7,1.7 -6,3.8 -3.1,5.1 1.3,16.4 1.3,16.4 -2.4,-8.3 -0.5,-12.8 0.3,-14 2.2,-3.2 6.3,-5 4.4,-6.2 z"
   id="path230" />
</g>
<path
   class="st4"
   d="M 212.3,236 H 9.5 C 7.6,236 6,234.4 6,232.5 v -30.6 c 0,-1.9 1.6,-3.5 3.5,-3.5 h 202.8 c 1.9,0 3.5,1.6 3.5,3.5 v 30.6 c 0,1.9 -1.5,3.5 -3.5,3.5 z"
   id="path234" />
<rect
   x="6.0000014"
   y="209.70001"
   class="st5"
   width="209.5"
   height="20.1"
   id="rect236" />
<g
   aria-label="SCN meetup 2"
   transform="translate(29.3926,225.2841)"
   id="text238"
   class="st8 st9"
   style="font-size:22.5832px;font-family:AndaleMono"><path
     d="m 10.089662,-13.838826 q -1.3893958,-0.474159 -2.6354415,-0.474159 -1.4114501,0 -2.3046333,0.65059 -0.8821563,0.639563 -0.8821563,1.830474 0,1.41145 2.3266872,2.4810646 1.7202047,0.7939406 2.2715524,1.1026953 0.5623746,0.3087547 1.1357765,0.8490754 0.573401,0.5403207 0.915237,1.2791266 0.352862,0.7277789 0.352862,1.643016 0,2.2715524 -1.5327462,3.52862511 -1.5217196,1.24604573 -3.5947868,1.24604573 -2.0069055,0 -3.5175981,-0.79394064 l 0.3749164,-1.5548004 q 1.7753395,0.8049676 3.0985739,0.8049676 1.5437735,0 2.4700376,-0.7939407 0.937291,-0.8049676 0.937291,-2.2053906 0,-1.0365337 -0.6064824,-1.7532856 Q 8.2922689,-6.7264415 6.6602798,-7.4762744 4.9841829,-8.2481611 4.48797,-8.5238349 4.0027841,-8.8105357 3.5175981,-9.3067486 3.0324122,-9.8029615 2.7677653,-10.420471 2.5031184,-11.03798 2.5031184,-11.765759 q 0,-1.929717 1.3893961,-3.010358 1.3893962,-1.080642 3.5175981,-1.080642 1.5548005,0 3.0875474,0.474159 z"
     id="path1494" /><path
     d="m 25.361993,-0.97037189 q -1.830474,1.26809963 -4.245377,1.26809963 -3.021385,0 -4.59824,-2.07306724 -1.565827,-2.0730672 -1.565827,-5.9986626 0,-3.7932719 1.52172,-5.9325009 1.521719,-2.150256 4.642347,-2.150256 1.124749,0 2.227445,0.286701 1.102695,0.286701 1.775339,0.76086 l -0.595455,1.422477 q -1.554801,-0.882157 -3.407329,-0.882157 -2.150256,0 -3.197817,1.565828 -1.04756,1.5548 -1.04756,4.9290479 0,6.4838486 4.245377,6.4838486 1.797393,0 3.683002,-1.1026954 z"
     id="path1496" /><path
     d="M 38.572283,0 H 36.565378 L 30.985739,-12.284026 V 0 h -1.80842 v -15.559031 h 2.017933 l 5.601692,12.1737563 V -15.559031 h 1.775339 z"
     id="path1498" /><path
     d="m 66.338152,0 h -1.720204 v -7.5424361 q 0,-2.7346849 -1.01448,-2.7346849 -0.518267,0 -1.146803,0.9483185 -0.61751,0.937291 -0.61751,1.0365336 V 0 h -1.709177 v -7.5424361 q 0,-2.7346849 -1.025507,-2.7346849 -0.50724,0 -1.135776,0.9483185 -0.61751,0.937291 -0.61751,1.0365336 V 0 h -1.720204 v -11.490085 h 1.654043 v 1.7312313 q 0.485186,-0.9152373 1.146803,-1.4555583 0.672644,-0.551347 1.334261,-0.551347 0.694698,0 1.246046,0.551347 0.551348,0.540321 0.76086,1.4555583 0.485186,-0.9152373 1.15783,-1.4555583 0.672644,-0.551347 1.323234,-0.551347 2.084094,0 2.084094,3.72711 z"
     id="path1500" /><path
     d="M 79.327902,-5.6899079 H 71.44363 q 0,1.9517707 1.124749,3.2198704 1.135777,1.2680996 2.778793,1.2680996 1.565827,0 3.230897,-0.5623746 l 0.297728,1.37836913 q -1.52172,0.68367111 -3.550679,0.68367111 -2.558253,0 -4.124081,-1.64301604 -1.565827,-1.6430161 -1.565827,-4.4328353 0,-2.7346844 1.400423,-4.3556464 1.41145,-1.631989 3.638894,-1.631989 1.984852,0 3.319113,1.510692 1.334262,1.510693 1.334262,4.0248384 z M 77.45332,-7.090331 q 0,-1.3452883 -0.838049,-2.2605254 -0.838048,-0.9262646 -1.874582,-0.9262646 -1.334261,0 -2.216417,0.8821567 -0.87113,0.8821563 -0.970372,2.3046333 z"
     id="path1502" /><path
     d="m 92.880033,-5.6899079 h -7.884271 q 0,1.9517707 1.124749,3.2198704 1.135776,1.2680996 2.778792,1.2680996 1.565828,0 3.230898,-0.5623746 l 0.297727,1.37836913 q -1.521719,0.68367111 -3.550679,0.68367111 -2.558253,0 -4.12408,-1.64301604 -1.565828,-1.6430161 -1.565828,-4.4328353 0,-2.7346844 1.400424,-4.3556464 1.41145,-1.631989 3.638894,-1.631989 1.984852,0 3.319113,1.510692 1.334261,1.510693 1.334261,4.0248384 z M 91.005451,-7.090331 q 0,-1.3452883 -0.838048,-2.2605254 -0.838049,-0.9262646 -1.874582,-0.9262646 -1.334261,0 -2.216418,0.8821567 -0.871129,0.8821563 -0.970372,2.3046333 z"
     id="path1504" /><path
     d="m 106.20059,-0.51826681 q -1.73123,0.79394064 -3.40733,0.79394064 -3.076517,0 -3.076517,-3.25295123 v -7.0241696 h -2.205391 v -1.488638 h 2.205391 v -3.142682 h 1.676097 v 3.142682 h 3.90354 v 1.488638 h -3.90354 v 6.5720645 q 0,1.0475606 0.46313,1.6319891 0.46313,0.5734016 1.25707,0.5734016 1.41145,0 2.78982,-0.6285364 z"
     id="path1506" /><path
     d="m 119.62039,0 h -1.7202 v -1.6981508 q -1.85253,1.97382463 -3.90354,1.97382463 -3.2309,0 -3.2309,-3.91456843 v -7.8511904 h 1.7202 v 7.3549775 q 0,1.4665848 0.46314,2.1943637 0.46313,0.716752 1.56582,0.716752 1.57686,0 3.38528,-1.9627977 v -8.3032955 h 1.7202 z"
     id="path1508" /><path
     d="m 126.06013,-10.001447 q 0.5734,-0.79394 1.54377,-1.279126 0.9814,-0.485186 2.06204,-0.485186 1.98486,0 3.10961,1.643016 1.13577,1.6319889 1.13577,4.2564038 0,2.6464688 -1.19091,4.4107814 -1.17988,1.75328554 -3.18679,1.75328554 -1.06961,0 -2.0069,-0.52929376 -0.92627,-0.54032071 -1.46659,-1.42247698 v 6.1971478 h -1.7202 V -11.490085 h 1.7202 z m 0,1.7091781 v 4.7746708 q 0.48519,0.9703719 1.31221,1.6209621 0.82702,0.6505903 1.70918,0.6505903 1.38939,0 2.20539,-1.3011805 0.82702,-1.3011805 0.82702,-3.2308974 0,-1.9848516 -0.78292,-3.2419242 -0.78291,-1.2570732 -2.18333,-1.2570732 -1.81945,0 -3.08755,1.9848521 z"
     id="path1510" /><path
     d="m 159.89082,0 h -8.55692 v -1.3122074 q 3.25296,-3.6278677 4.22333,-4.8628865 0.97037,-1.2350187 1.57685,-2.591334 0.60648,-1.3563151 0.60648,-2.7016031 0,-1.301181 -0.79394,-2.051014 -0.78291,-0.749833 -2.20539,-0.749833 -1.09166,0 -2.93317,0.672645 l -0.25362,-1.554801 q 1.66507,-0.705725 3.48452,-0.705725 2.0841,0 3.3522,1.179884 1.27912,1.168857 1.27912,3.131655 0,1.400423 -0.66162,2.7787921 -0.65059,1.3783692 -1.67609,2.6464688 -1.02551,1.2680996 -3.99176,4.5431048 h 6.55001 z"
     id="path1512" /></g>
</svg>
