<?xml version="1.0" encoding="UTF-8" standalone="no"?>
<svg
   id="Layer_1"
   data-name="Layer 1"
   viewBox="0 0 501.82 591.6"
   version="1.1"
   sodipodi:docname="SecurityChampion.svg"
   inkscape:version="1.2.1 (9c6d41e4, 2022-07-14)"
   xmlns:inkscape="http://www.inkscape.org/namespaces/inkscape"
   xmlns:sodipodi="http://sodipodi.sourceforge.net/DTD/sodipodi-0.dtd"
   xmlns="http://www.w3.org/2000/svg"
   xmlns:svg="http://www.w3.org/2000/svg">
  <sodipodi:namedview
     id="namedview190"
     pagecolor="#ffffff"
     bordercolor="#000000"
     borderopacity="0.25"
     inkscape:showpageshadow="2"
     inkscape:pageopacity="0.0"
     inkscape:pagecheckerboard="0"
     inkscape:deskcolor="#d1d1d1"
     showgrid="false"
     inkscape:zoom="1.2347032"
     inkscape:cx="-63.578034"
     inkscape:cy="428.84801"
     inkscape:window-width="1706"
     inkscape:window-height="1297"
     inkscape:window-x="0"
     inkscape:window-y="25"
     inkscape:window-maximized="0"
     inkscape:current-layer="Layer_1" />
  <defs
     id="defs137">
    <style
       id="style135">.cls-1{fill:#c30000;}.cls-2{fill:#063b60;}.cls-3{fill:#cc1919;}.cls-4{fill:none;stroke:#fff;stroke-linecap:round;stroke-linejoin:round;stroke-width:10px;}.cls-5{fill:#fff;}</style>
    <mask
       id="mask-2"
       fill="#ffffff">
      <polygon
         id="use360"
         points="0.5635,0.6878 0.5635,43.4168 22.407,43.4168 22.407,0.6878 " />
    </mask>
  </defs>
  <path
     class="cls-1"
     d="M497.26,893.54S335,769.27,286.17,689.84C241.85,617.66,245.86,394.77,247,354.63a9.52,9.52,0,0,1,6-8.58C339.19,312,424.23,301.25,499,302h-3.49c74.77-.73,159.82,10,246,44.07a9.52,9.52,0,0,1,6,8.58c1.1,40.14,5.11,263-39.21,335.21-48.78,79.43-211.08,203.7-211.08,203.7"
     transform="translate(-246.34 -301.95)"
     id="path139" />
  <path
     class="cls-2"
     d="M584.3,822.68"
     transform="translate(-246.34 -301.95)"
     id="path141" />
  <path
     class="cls-3"
     d="M497.24,893.54S334.93,769.27,286.16,689.84c-44.32-72.18-40.32-295.07-39.22-335.21a9.53,9.53,0,0,1,6-8.58C339.17,312,424.21,301.25,499,302H495.5Z"
     transform="translate(-246.34 -301.95)"
     id="path143" />
  <path
     class="cls-4"
     d="M497.26,868.79S348.44,755.19,303.71,682.36s-35.77-313.07-35.77-313.07c80.85-33,160.81-43.24,230.91-42.56h-3.19c70.1-.68,150.06,9.61,230.92,42.56,0,0,8.94,240.23-35.78,313.07S497.26,868.79,497.26,868.79Z"
     transform="translate(-246.34 -301.95)"
     id="path145" />
  <path
     class="cls-2"
     d="M584.31,827.83"
     transform="translate(-246.34 -301.95)"
     id="path147" />
  <path
     class="cls-5"
     d="M305.73,437l14.06-1a13.25,13.25,0,0,0,1.86,6,7.45,7.45,0,0,0,6.52,3.3,6.64,6.64,0,0,0,4.88-1.69,5.37,5.37,0,0,0,1.71-3.92,5.29,5.29,0,0,0-1.63-3.79q-1.63-1.67-7.57-3.16-9.72-2.47-13.86-6.6a14.2,14.2,0,0,1-4.18-10.52,15.76,15.76,0,0,1,2.14-7.93,14.84,14.84,0,0,1,6.43-5.87q4.29-2.13,11.76-2.13,9.16,0,14,3.88t5.73,12.35l-13.93.93a9,9,0,0,0-2.33-5.35,6.91,6.91,0,0,0-4.91-1.67A5.46,5.46,0,0,0,322.5,411a4,4,0,0,0-1.31,3,3.17,3.17,0,0,0,1.08,2.34c.69.72,2.35,1.39,5,2q9.69,2.37,13.88,4.81a15.35,15.35,0,0,1,6.09,6,16.89,16.89,0,0,1,1.91,8.06,19,19,0,0,1-2.54,9.66,16.66,16.66,0,0,1-7.11,6.7,25.58,25.58,0,0,1-11.52,2.29q-12.19,0-16.89-5.35A22.54,22.54,0,0,1,305.73,437Z"
     transform="translate(-246.34 -301.95)"
     id="path149" />
  <path
     class="cls-5"
     d="M356.52,400.53h39.6v11.62H371.33v8.66h23v11.1h-23v10.74h25.5V455H356.52Z"
     transform="translate(-246.34 -301.95)"
     id="path151" />
  <path
     class="cls-5"
     d="M436.63,432.69l12.95,4.46a29.1,29.1,0,0,1-4.11,10.36,18.38,18.38,0,0,1-7,6.28,23.31,23.31,0,0,1-10.59,2.12q-7.8,0-12.74-2.58t-8.53-9.08q-3.58-6.5-3.58-16.63,0-13.5,6.31-20.76t17.86-7.26q9,0,14.2,4.16t7.68,12.78l-13,3.3a13.74,13.74,0,0,0-1.44-3.64,9,9,0,0,0-3-3,7.91,7.91,0,0,0-4-1,8.44,8.44,0,0,0-7.7,4.6q-2,3.42-2,10.72,0,9.06,2.42,12.41a7.87,7.87,0,0,0,6.78,3.36,7.7,7.7,0,0,0,6.41-2.71A17.86,17.86,0,0,0,436.63,432.69Z"
     transform="translate(-246.34 -301.95)"
     id="path153" />
  <path
     class="cls-5"
     d="M487.88,400.53h14.74V433a30.78,30.78,0,0,1-1.32,9.11,20.22,20.22,0,0,1-4.14,7.5,16.64,16.64,0,0,1-5.92,4.51,26.56,26.56,0,0,1-10.34,1.82,57.49,57.49,0,0,1-7.62-.56,18.15,18.15,0,0,1-6.9-2.21,17.8,17.8,0,0,1-5.07-4.69,18.11,18.11,0,0,1-3.15-6.28,36.75,36.75,0,0,1-1.37-9.2V400.53h14.74v33.21a10.32,10.32,0,0,0,2.17,7,8.49,8.49,0,0,0,12,0c1.44-1.65,2.17-4,2.17-7Z"
     transform="translate(-246.34 -301.95)"
     id="path155" />
  <path
     class="cls-5"
     d="M512.6,455V400.53h24.63q6.85,0,10.47,1.34a11.42,11.42,0,0,1,5.84,4.95,16.6,16.6,0,0,1,2.22,8.82,16.86,16.86,0,0,1-1.7,7.82,14.33,14.33,0,0,1-4.67,5.33A16.46,16.46,0,0,1,544.2,431a14,14,0,0,1,3.85,2,16.7,16.7,0,0,1,2.36,2.87,21.32,21.32,0,0,1,2.07,3.38L559.64,455h-16.7l-7.89-16.64a12.8,12.8,0,0,0-2.68-4.2,5.7,5.7,0,0,0-3.62-1.26h-1.31V455Zm14.84-32.39h6.23a20.13,20.13,0,0,0,3.92-.74,3.94,3.94,0,0,0,2.4-1.71,5.51,5.51,0,0,0,.93-3.16,5.38,5.38,0,0,0-1.47-4.05q-1.47-1.41-5.51-1.41h-6.5Z"
     transform="translate(-246.34 -301.95)"
     id="path157" />
  <path
     class="cls-5"
     d="M565,400.53h14.8V455H565Z"
     transform="translate(-246.34 -301.95)"
     id="path159" />
  <path
     class="cls-5"
     d="M587,400.53h44.91V414H616.85v41H602.08V414H587Z"
     transform="translate(-246.34 -301.95)"
     id="path161" />
  <path
     class="cls-5"
     d="M633.78,400.53H650.2l9.63,18.37,9.66-18.37h16.32l-18.59,31.64V455H652.41V432.17Z"
     transform="translate(-246.34 -301.95)"
     id="path163" />
  <path
     class="cls-5"
     d="M346.31,501.75l11.34,3.43a21,21,0,0,1-3.6,8A15.58,15.58,0,0,1,348,518a22.75,22.75,0,0,1-9.27,1.63,27,27,0,0,1-11.16-2,17.67,17.67,0,0,1-7.47-7q-3.15-5-3.14-12.79,0-10.39,5.52-16t15.65-5.58q7.91,0,12.44,3.2t6.73,9.83l-11.43,2.54a9.67,9.67,0,0,0-1.26-2.8,7.54,7.54,0,0,0-2.65-2.29,7.69,7.69,0,0,0-3.52-.79,7.59,7.59,0,0,0-6.74,3.53q-1.77,2.63-1.77,8.25,0,7,2.11,9.55a8.35,8.35,0,0,0,11.56.49A13,13,0,0,0,346.31,501.75Z"
     transform="translate(-246.34 -301.95)"
     id="path165" />
  <path
     class="cls-5"
     d="M364,477h12.94v14.66h14.15V477h13v41.89h-13V502H376.93v16.94H364Z"
     transform="translate(-246.34 -301.95)"
     id="path167" />
  <path
     class="cls-5"
     d="M438.43,512h-14.7l-2,6.92H408.48L424.22,477h14.12l15.74,41.89H440.52Zm-2.69-9.05-4.62-15.06-4.58,15.06Z"
     transform="translate(-246.34 -301.95)"
     id="path169" />
  <path
     class="cls-5"
     d="M458.05,477h17l6.56,25.49L488.15,477h17v41.89h-10.6V487l-8.17,31.94H476.8L468.65,487v31.94h-10.6Z"
     transform="translate(-246.34 -301.95)"
     id="path171" />
  <path
     class="cls-5"
     d="M513.36,477h21.51q7,0,10.53,3.35t3.5,9.51q0,6.34-3.81,9.91t-11.64,3.57h-7.09v15.55h-13Zm13,17.86h3.17q3.75,0,5.26-1.3a4.18,4.18,0,0,0,1.51-3.33,4.63,4.63,0,0,0-1.31-3.34c-.88-.91-2.52-1.37-4.94-1.37h-3.69Z"
     transform="translate(-246.34 -301.95)"
     id="path173" />
  <path
     class="cls-5"
     d="M555.07,477h13v41.89h-13Z"
     transform="translate(-246.34 -301.95)"
     id="path175" />
  <path
     class="cls-5"
     d="M575.7,498q0-10.26,5.72-16t15.91-5.71q10.45,0,16.12,5.61t5.65,15.73q0,7.35-2.47,12a17.61,17.61,0,0,1-7.14,7.32,23.63,23.63,0,0,1-11.64,2.61,26.69,26.69,0,0,1-11.73-2.26,17.56,17.56,0,0,1-7.53-7.14A23.72,23.72,0,0,1,575.7,498Zm12.95,0q0,6.35,2.35,9.12a8.92,8.92,0,0,0,12.87.05q2.29-2.71,2.29-9.74,0-5.91-2.39-8.64a8.14,8.14,0,0,0-6.47-2.73,7.84,7.84,0,0,0-6.28,2.77Q588.65,491.64,588.65,498Z"
     transform="translate(-246.34 -301.95)"
     id="path177" />
  <path
     class="cls-5"
     d="M626.16,477h12.08L654,500.18V477h12.2v41.89H654l-15.69-23v23H626.16Z"
     transform="translate(-246.34 -301.95)"
     id="path179" />
  <path
     class="cls-5"
     d="M495.76,400.53h6.86V433a30.78,30.78,0,0,1-1.32,9.11,20.22,20.22,0,0,1-4.14,7.5c-.42.47-.83.91-1.26,1.32m-22.2-10.2"
     transform="translate(-246.34 -301.95)"
     id="path181" />
  <path
     class="cls-5"
     d="M494.56,487m1.43-9.94h9.17V519h-9.05Z"
     transform="translate(-246.34 -301.95)"
     id="path183" />
  <path
     class="cls-5"
     d="M610.75,670c0,14.65-13.59,28.34-31.43,40C527.44,744,464.07,744,412.19,710c-17.84-11.66-31.43-25.35-31.43-40s13.59-28.34,31.43-40c51.88-33.94,115.25-33.94,167.13,0C597.16,641.69,610.75,655.38,610.75,670Z"
     id="path185"
     transform="translate(-246.34 -301.95)" />
  <g
     id="Modul-forslag"
     stroke="none"
     stroke-width="1"
     fill="none"
     fill-rule="evenodd"
     transform="matrix(0.50461676,0,0,0.50037207,183.8248,324.4349)">
    <g
       id="NAV-logo-/-rød">
      <g
         id="Page-1-Copy">
        <path
           d="m 125.3091,168.942 c -46.641,0 -84.46,-37.817 -84.46,-84.465 0,-46.653 37.819,-84.477 84.46,-84.477 46.658,0 84.481,37.824 84.481,84.477 0,46.648 -37.823,84.465 -84.481,84.465 z"
           id="Fill-1"
           fill="#c30000" />
        <polygon
           id="Fill-3"
           fill="#c30000"
           points="16.611,121.3588 0,121.3588 17.265,78.6298 33.854,78.6298 " />
        <polygon
           id="Fill-5"
           fill="#c30000"
           points="222.089,121.3588 213.044,121.3588 230.088,78.6298 239.132,78.6298 " />
        <g
           id="Group-9"
           transform="translate(246,77.942)">
          <mask
             id="mask389"
             fill="#ffffff">
            <polygon
               id="use387"
               points="0.5635,43.4168 22.407,43.4168 22.407,0.6878 0.5635,0.6878 " />
          </mask>
          <g
             id="Clip-8" />
          <polygon
             id="Fill-7"
             fill="#c30000"
             mask="url(#mask-2)"
             points="5.3645,43.4168 0.5635,43.4168 17.6045,0.6878 22.4075,0.6878 " />
        </g>
        <path
           d="m 197.3604,78.6298 h -15.016 c 0,0 -1.035,0 -1.401,0.914 l -8.31,25.439 -8.303,-25.439 c -0.366,-0.914 -1.407,-0.914 -1.407,-0.914 h -28.872 c -0.625,0 -1.149,0.522 -1.149,1.143 v 8.639 c 0,-6.853 -7.292,-9.782 -11.562,-9.782 -9.562,0 -15.963,6.298 -17.956,15.873 -0.108,-6.352 -0.636,-8.628 -2.347,-10.959 -0.786,-1.142 -1.922,-2.102 -3.159,-2.896 -2.547,-1.492 -4.834,-2.018 -9.749,-2.018 h -5.771 c 0,0 -1.043,0 -1.411,0.914 l -5.251,13.013 v -12.784 c 0,-0.621 -0.52,-1.143 -1.144,-1.143 h -13.354 c 0,0 -1.031,0 -1.406,0.914 l -5.459,13.531 c 0,0 -0.545,1.353 0.701,1.353 h 5.133 v 25.784 c 0,0.64 0.504,1.147 1.147,1.147 h 13.238 c 0.624,0 1.144,-0.507 1.144,-1.147 v -25.784 h 5.16 c 2.961,0 3.588,0.081 4.74,0.618 0.694,0.262 1.319,0.792 1.66,1.403 0.698,1.314 0.873,2.892 0.873,7.545 v 16.218 c 0,0.64 0.514,1.147 1.149,1.147 h 12.688 c 0,0 1.434,0 2.001,-1.416 l 2.812,-6.95 c 3.739,5.237 9.893,8.366 17.541,8.366 h 1.671 c 0,0 1.443,0 2.014,-1.416 l 4.897,-12.128 v 12.397 c 0,0.64 0.524,1.147 1.149,1.147 h 12.952 c 0,0 1.429,0 2.003,-1.416 0,0 5.18,-12.861 5.2,-12.958 h 0.008 c 0.199,-1.07 -1.153,-1.07 -1.153,-1.07 h -4.623 v -22.068 l 14.545,36.096 c 0.568,1.416 2,1.416 2,1.416 h 15.301 c 0,0 1.44,0 2.008,-1.416 l 16.125,-39.929 c 0.558,-1.384 -1.057,-1.384 -1.057,-1.384 z m -64.458,27.285 h -8.7 c -3.463,0 -6.28,-2.804 -6.28,-6.271 0,-3.461 2.817,-6.283 6.28,-6.283 h 2.433 c 3.454,0 6.267,2.822 6.267,6.283 z"
           id="Fill-10"
           fill="#fefefe" />
      </g>
    </g>
  </g>
</svg>
